<svg xmlns="http://www.w3.org/2000/svg"
    xmlns:xlink="http://www.w3.org/1999/xlink" viewBox="0 0 1061.2 537.17">
    <defs>
        <style>.cls-1{isolation:isolate;}.cls-2{fill:#3c3c3b;}.cls-3,.cls-6{fill:#0a6ba7;}.cls-15,.cls-4{fill:#0a7cc2;}.cls-11,.cls-16,.cls-18,.cls-4,.cls-6,.cls-9{mix-blend-mode:multiply;}.cls-5{fill:#4d3c2e;}.cls-10,.cls-17,.cls-20,.cls-21,.cls-22,.cls-43,.cls-5,.cls-8{mix-blend-mode:screen;}.cls-12,.cls-7{fill:#c1c1c1;}.cls-8{fill:#273b24;}.cls-9{fill:#b8d4f0;}.cls-10{fill:#334d2e;}.cls-11{fill:#a0b9d1;}.cls-12{stroke:#c1c1c1;}.cls-12,.cls-22,.cls-23,.cls-24,.cls-25,.cls-42,.cls-43{stroke-miterlimit:10;}.cls-13{fill:#1d1d1b;}.cls-14{fill:#000100;}.cls-16{fill:#edd4bc;}.cls-17{fill:#0a121a;}.cls-18,.cls-19,.cls-21{fill:#047cc2;}.cls-22{fill:#368fd8;opacity:0.85;}.cls-22,.cls-23,.cls-24,.cls-25,.cls-42,.cls-43{stroke:#000;stroke-width:0.5px;}.cls-23{fill:url(#New_Gradient_Swatch_4);}.cls-24{fill:url(#New_Gradient_Swatch_4-2);}.cls-25{fill:url(#New_Gradient_Swatch_4-3);}.cls-26{fill:url(#radial-gradient);}.cls-27{fill:url(#linear-gradient);}.cls-28{fill:url(#linear-gradient-2);}.cls-29{fill:url(#linear-gradient-3);}.cls-30{fill:#fff;}.cls-31{fill:#666;}.cls-32{fill:#4d4d4d;}.cls-33{fill:url(#linear-gradient-4);}.cls-34{fill:url(#linear-gradient-5);}.cls-35{fill:url(#linear-gradient-6);}.cls-36{fill:url(#radial-gradient-2);}.cls-37{fill:url(#linear-gradient-7);}.cls-38{fill:url(#linear-gradient-8);}.cls-39{fill:url(#linear-gradient-9);}.cls-40{fill:url(#linear-gradient-10);}.cls-41{fill:url(#linear-gradient-11);}.cls-42,.cls-43{fill:gray;}</style>
        <linearGradient id="New_Gradient_Swatch_4" x1="174.49" y1="218.55" x2="203.94" y2="218.55" gradientUnits="userSpaceOnUse">
            <stop offset="0" stop-color="#6e6e6e"/>
            <stop offset="0.15" stop-color="#696969"/>
            <stop offset="0.35" stop-color="#909090"/>
            <stop offset="0.47" stop-color="#a8a8a8"/>
            <stop offset="0.89" stop-color="#a9a9a9"/>
        </linearGradient>
        <linearGradient id="New_Gradient_Swatch_4-2" x1="1029.08" y1="218.55" x2="1060.95" y2="218.55" xlink:href="#New_Gradient_Swatch_4"/>
        <linearGradient id="New_Gradient_Swatch_4-3" x1="174.49" y1="449.05" x2="1060.95" y2="449.05" xlink:href="#New_Gradient_Swatch_4"/>
        <radialGradient id="radial-gradient" cx="565.27" cy="803.3" r="24.97" gradientUnits="userSpaceOnUse">
            <stop offset="0.17" stop-color="#e6e6e6"/>
            <stop offset="0.19" stop-color="#e1e1e1"/>
            <stop offset="0.47" stop-color="#a8a8a8"/>
            <stop offset="0.7" stop-color="#7e7e7e"/>
            <stop offset="0.89" stop-color="#646464"/>
            <stop offset="1" stop-color="#5b5b5b"/>
        </radialGradient>
        <linearGradient id="linear-gradient" x1="399.3" y1="518.56" x2="399.3" y2="469.09" gradientUnits="userSpaceOnUse">
            <stop offset="0" stop-color="#b3b3b3"/>
            <stop offset="0.16" stop-color="#d1d1d1"/>
            <stop offset="0.37" stop-color="#f2f2f2"/>
            <stop offset="0.48" stop-color="#fff"/>
            <stop offset="0.73" stop-color="#ddd"/>
            <stop offset="1" stop-color="#b3b3b3"/>
        </linearGradient>
        <linearGradient id="linear-gradient-2" x1="245.07" y1="519.57" x2="245.07" y2="468.08" gradientUnits="userSpaceOnUse">
            <stop offset="0" stop-color="#666"/>
            <stop offset="0.07" stop-color="#6d6d6d"/>
            <stop offset="0.16" stop-color="gray"/>
            <stop offset="0.28" stop-color="#a0a0a0"/>
            <stop offset="0.41" stop-color="#ccc"/>
            <stop offset="0.48" stop-color="#e6e6e6"/>
            <stop offset="0.53" stop-color="#cfcfcf"/>
            <stop offset="0.63" stop-color="#a6a6a6"/>
            <stop offset="0.73" stop-color="#858585"/>
            <stop offset="0.83" stop-color="#6e6e6e"/>
            <stop offset="0.92" stop-color="#606060"/>
            <stop offset="1" stop-color="#5b5b5b"/>
        </linearGradient>
        <linearGradient id="linear-gradient-3" x1="230.93" y1="523.2" x2="230.93" y2="464.85" xlink:href="#linear-gradient-2"/>
        <linearGradient id="linear-gradient-4" x1="200.41" y1="505.72" x2="200.41" y2="482.14" xlink:href="#linear-gradient-2"/>
        <linearGradient id="linear-gradient-5" x1="182.38" y1="505.72" x2="182.38" y2="482.14" xlink:href="#linear-gradient-2"/>
        <linearGradient id="linear-gradient-6" x1="191.32" y1="509.59" x2="191.32" y2="478.87" xlink:href="#linear-gradient-2"/>
        <radialGradient id="radial-gradient-2" cx="337.56" cy="803.3" r="24.97" gradientTransform="matrix(-1, 0, 0, 1, 1272, 0)" xlink:href="#radial-gradient"/>
        <linearGradient id="linear-gradient-7" x1="360" y1="828.84" x2="360" y2="777.36" gradientTransform="matrix(-1, 0, 0, 1, 929.37, -309.28)" xlink:href="#linear-gradient-2"/>
        <linearGradient id="linear-gradient-8" x1="345.85" y1="832.48" x2="345.85" y2="774.12" gradientTransform="matrix(-1, 0, 0, 1, 929.37, -309.28)" xlink:href="#linear-gradient-2"/>
        <linearGradient id="linear-gradient-9" x1="315.33" y1="815" x2="315.33" y2="791.42" gradientTransform="matrix(-1, 0, 0, 1, 929.37, -309.28)" xlink:href="#linear-gradient-2"/>
        <linearGradient id="linear-gradient-10" x1="297.31" y1="815" x2="297.31" y2="791.42" gradientTransform="matrix(-1, 0, 0, 1, 929.37, -309.28)" xlink:href="#linear-gradient-2"/>
        <linearGradient id="linear-gradient-11" x1="306.24" y1="818.87" x2="306.24" y2="788.14" gradientTransform="matrix(-1, 0, 0, 1, 929.37, -309.28)" xlink:href="#linear-gradient-2"/>
    </defs>
    <g class="cls-1">
        <g id="Layer_1" data-name="Layer 1">
            <rect class="cls-2" x="17.79" y="523.87" width="53.04" height="2.53"/>
            <path class="cls-2" d="M417.4,846.45h5.33c.85,0,1.69-.83,1.49-2.28l-3.91-20-12,3.5,7.71,18C416.38,846.49,416.77,846.45,417.4,846.45Z" transform="translate(-342.63 -309.28)"/>
            <path class="cls-2" d="M356.25,846.45h-5.32c-.86,0-1.7-.83-1.5-2.28l3.91-20,12,3.5-7.7,18C357.27,846.49,356.88,846.45,356.25,846.45Z" transform="translate(-342.63 -309.28)"/>
            <rect class="cls-3" x="100.28" y="460.61" width="17.12" height="65.24"/>
            <path class="cls-4" d="M454.74,769.89A70.08,70.08,0,0,1,458.29,793c0,19.11-6.22,34.61-13.9,34.61a5.74,5.74,0,0,1-1.48-.2v7.72H460V769.89Z" transform="translate(-342.63 -309.28)"/>
            <rect class="cls-4" x="100.28" y="521.6" width="17.12" height="4.25"/>
            <rect class="cls-5" x="100.28" y="460.61" width="17.12" height="3.24"/>
            <polygon class="cls-3" points="100.28 525.85 94.03 519.75 94.03 466.71 100.28 460.61 100.28 525.85"/>
            <polygon class="cls-4" points="94.03 519.75 100.28 525.85 100.28 521.6 94.03 515.5 94.03 519.75"/>
            <polygon class="cls-5" points="95.75 521.28 95.75 468.24 100.28 463.82 100.28 460.61 94.03 466.71 94.03 519.75 100.28 525.85 100.28 525.71 95.75 521.28"/>
            <polygon class="cls-3" points="117.39 525.85 123.63 519.75 123.63 466.71 117.39 460.61 117.39 525.85"/>
            <path class="cls-6" d="M464.53,774.29V823a8.22,8.22,0,0,1-2.46,5.86l-2,2v4.33l6.24-6.1V776Z" transform="translate(-342.63 -309.28)"/>
            <rect class="cls-7" x="2.76" y="466.71" width="80.73" height="53.04" rx="2.16"/>
            <path class="cls-8" d="M345.4,777.83V812a44.69,44.69,0,0,0,22.16,5.62c20,0,36.29-12.06,36.29-26.94A22.15,22.15,0,0,0,397.93,776H347.24A1.84,1.84,0,0,0,345.4,777.83Z" transform="translate(-342.63 -309.28)"/>
            <path class="cls-9" d="M424.2,776h-7v20.68a27.85,27.85,0,0,1-27.85,27.86h-44v2.57a1.92,1.92,0,0,0,1.92,1.93H424.2a1.92,1.92,0,0,0,1.92-1.93V777.91A1.92,1.92,0,0,0,424.2,776Z" transform="translate(-342.63 -309.28)"/>
            <path class="cls-10" d="M348.91,790.86a10.61,10.61,0,0,1,10.61-10.61h66.6v-2.42a1.84,1.84,0,0,0-1.84-1.84h-77a1.84,1.84,0,0,0-1.84,1.84v49.36a1.84,1.84,0,0,0,1.84,1.84h1.67Z" transform="translate(-342.63 -309.28)"/>
            <path class="cls-7" d="M426.12,794H344.83a1.7,1.7,0,0,1,0-3.4h81.29a1.7,1.7,0,0,1,0,3.4Z" transform="translate(-342.63 -309.28)"/>
            <path class="cls-10" d="M344.83,791.28h81.29a1.68,1.68,0,0,1,1.63,1.37,1.21,1.21,0,0,0,.07-.33,1.7,1.7,0,0,0-1.7-1.7H344.83a1.71,1.71,0,0,0-1.7,1.7,1.76,1.76,0,0,0,.07.33A1.68,1.68,0,0,1,344.83,791.28Z" transform="translate(-342.63 -309.28)"/>
            <path class="cls-11" d="M427.48,793h-84a1.42,1.42,0,0,1-.2,0,1.7,1.7,0,0,0,1.56,1h81.29a1.71,1.71,0,0,0,1.57-1A1.91,1.91,0,0,1,427.48,793Z" transform="translate(-342.63 -309.28)"/>
            <rect class="cls-11" x="2.76" y="484.74" width="80.73" height="1.7"/>
            <path class="cls-7" d="M426.12,800.4H344.83a1.7,1.7,0,0,1,0-3.4h81.29a1.7,1.7,0,0,1,0,3.4Z" transform="translate(-342.63 -309.28)"/>
            <path class="cls-10" d="M344.83,797.66h81.29a1.68,1.68,0,0,1,1.63,1.37,1.21,1.21,0,0,0,.07-.33,1.7,1.7,0,0,0-1.7-1.7H344.83a1.71,1.71,0,0,0-1.7,1.7,1.76,1.76,0,0,0,.07.33A1.68,1.68,0,0,1,344.83,797.66Z" transform="translate(-342.63 -309.28)"/>
            <path class="cls-11" d="M427.48,799.4h-84a1.42,1.42,0,0,1-.2,0,1.7,1.7,0,0,0,1.56,1h81.29a1.71,1.71,0,0,0,1.57-1A1.91,1.91,0,0,1,427.48,799.4Z" transform="translate(-342.63 -309.28)"/>
            <rect class="cls-11" x="2.76" y="491.12" width="80.73" height="1.7"/>
            <path class="cls-7" d="M426.12,806.77H344.83a1.7,1.7,0,1,1,0-3.39h81.29a1.7,1.7,0,1,1,0,3.39Z" transform="translate(-342.63 -309.28)"/>
            <path class="cls-10" d="M344.83,804h81.29a1.68,1.68,0,0,1,1.63,1.37,1.3,1.3,0,0,0,.07-.33,1.7,1.7,0,0,0-1.7-1.7H344.83a1.7,1.7,0,0,0-1.7,1.7,1.94,1.94,0,0,0,.07.33A1.68,1.68,0,0,1,344.83,804Z" transform="translate(-342.63 -309.28)"/>
            <path class="cls-11" d="M427.48,805.78h-84a1.42,1.42,0,0,1-.2,0,1.71,1.71,0,0,0,1.56,1h81.29a1.72,1.72,0,0,0,1.57-1A1.91,1.91,0,0,1,427.48,805.78Z" transform="translate(-342.63 -309.28)"/>
            <rect class="cls-11" x="2.76" y="497.5" width="80.73" height="1.7"/>
            <path class="cls-7" d="M426.12,813.15H344.83a1.7,1.7,0,1,1,0-3.39h81.29a1.7,1.7,0,1,1,0,3.39Z" transform="translate(-342.63 -309.28)"/>
            <path class="cls-10" d="M344.83,810.42h81.29a1.67,1.67,0,0,1,1.63,1.37,1.3,1.3,0,0,0,.07-.33,1.7,1.7,0,0,0-1.7-1.7H344.83a1.7,1.7,0,0,0-1.7,1.7,1.94,1.94,0,0,0,.07.33A1.67,1.67,0,0,1,344.83,810.42Z" transform="translate(-342.63 -309.28)"/>
            <path class="cls-11" d="M427.48,812.16h-84c-.07,0-.13,0-.2,0a1.71,1.71,0,0,0,1.56,1h81.29a1.72,1.72,0,0,0,1.57-1C427.61,812.12,427.55,812.16,427.48,812.16Z" transform="translate(-342.63 -309.28)"/>
            <rect class="cls-11" x="2.76" y="503.87" width="80.73" height="1.7"/>
            <path class="cls-12" d="M426.12,819.53H344.83a1.7,1.7,0,1,1,0-3.39h81.29a1.7,1.7,0,1,1,0,3.39Z" transform="translate(-342.63 -309.28)"/>
            <path class="cls-10" d="M344.83,816.8h81.29a1.67,1.67,0,0,1,1.63,1.36,1.21,1.21,0,0,0,.07-.33,1.7,1.7,0,0,0-1.7-1.69H344.83a1.7,1.7,0,0,0-1.7,1.69,1.76,1.76,0,0,0,.07.33A1.67,1.67,0,0,1,344.83,816.8Z" transform="translate(-342.63 -309.28)"/>
            <path class="cls-11" d="M427.48,818.54h-84a1.46,1.46,0,0,1-.2,0,1.7,1.7,0,0,0,1.56,1h81.29a1.71,1.71,0,0,0,1.57-1A2.09,2.09,0,0,1,427.48,818.54Z" transform="translate(-342.63 -309.28)"/>
            <rect class="cls-11" x="2.76" y="510.25" width="80.73" height="1.7"/>
            <path class="cls-7" d="M426.12,825.91H344.83a1.7,1.7,0,1,1,0-3.39h81.29a1.7,1.7,0,1,1,0,3.39Z" transform="translate(-342.63 -309.28)"/>
            <path class="cls-10" d="M344.83,823.18h81.29a1.67,1.67,0,0,1,1.63,1.36,1.21,1.21,0,0,0,.07-.33,1.7,1.7,0,0,0-1.7-1.69H344.83a1.7,1.7,0,0,0-1.7,1.69,1.76,1.76,0,0,0,.07.33A1.67,1.67,0,0,1,344.83,823.18Z" transform="translate(-342.63 -309.28)"/>
            <path class="cls-11" d="M427.48,824.91h-84a1.42,1.42,0,0,1-.2,0,1.7,1.7,0,0,0,1.56,1h81.29a1.71,1.71,0,0,0,1.57-1A1.91,1.91,0,0,1,427.48,824.91Z" transform="translate(-342.63 -309.28)"/>
            <rect class="cls-11" x="2.76" y="516.63" width="80.73" height="1.7"/>
            <path class="cls-7" d="M20.74,461.45H63.12A1.86,1.86,0,0,1,65,463.31v3.4a0,0,0,0,1,0,0H18.88a0,0,0,0,1,0,0v-3.4A1.86,1.86,0,0,1,20.74,461.45Z"/>
            <path class="cls-10" d="M362.21,773.11a1.64,1.64,0,0,1,1.64-1.65h42.81a1.56,1.56,0,0,1,.8.24,1.64,1.64,0,0,0-1.49-1H363.16a1.65,1.65,0,0,0-1.65,1.65V776h.7Z" transform="translate(-342.63 -309.28)"/>
            <path class="cls-11" d="M406,770.73h-3.11a1.71,1.71,0,0,1,.09.45,3.62,3.62,0,0,1-3.61,3.62H361.51V776h46.1v-3.61A1.64,1.64,0,0,0,406,770.73Z" transform="translate(-342.63 -309.28)"/>
            <path class="cls-7" d="M20.74,454.51H63.12A1.86,1.86,0,0,1,65,456.37v3.4a0,0,0,0,1,0,0H18.88a0,0,0,0,1,0,0v-3.4A1.86,1.86,0,0,1,20.74,454.51Z"/>
            <path class="cls-10" d="M362.21,766.17a1.64,1.64,0,0,1,1.64-1.65h42.81a1.66,1.66,0,0,1,.8.23,1.65,1.65,0,0,0-1.49-1H363.16a1.64,1.64,0,0,0-1.65,1.64v3.62h.7Z" transform="translate(-342.63 -309.28)"/>
            <path class="cls-11" d="M406,763.79h-3.11a1.63,1.63,0,0,1,.09.45,3.61,3.61,0,0,1-3.61,3.61H361.51v1.2h46.1v-3.62A1.63,1.63,0,0,0,406,763.79Z" transform="translate(-342.63 -309.28)"/>
            <rect class="cls-13" x="20.67" y="459.77" width="42.52" height="1.68"/>
            <path class="cls-14" d="M456.72,775.12H446.2a1.58,1.58,0,1,1,0-3.15h10.52a1.58,1.58,0,0,1,0,3.15Z" transform="translate(-342.63 -309.28)"/>
            <path class="cls-14" d="M456.72,780.9H446.2a1.57,1.57,0,1,1,0-3.14h10.52a1.57,1.57,0,0,1,0,3.14Z" transform="translate(-342.63 -309.28)"/>
            <path class="cls-14" d="M456.72,786.69H446.2a1.58,1.58,0,1,1,0-3.15h10.52a1.58,1.58,0,0,1,0,3.15Z" transform="translate(-342.63 -309.28)"/>
            <path class="cls-14" d="M456.72,792.47H446.2a1.57,1.57,0,1,1,0-3.14h10.52a1.57,1.57,0,1,1,0,3.14Z" transform="translate(-342.63 -309.28)"/>
            <path class="cls-14" d="M456.72,798.26H446.2a1.58,1.58,0,1,1,0-3.15h10.52a1.58,1.58,0,0,1,0,3.15Z" transform="translate(-342.63 -309.28)"/>
            <path class="cls-14" d="M456.72,804H446.2a1.57,1.57,0,1,1,0-3.14h10.52a1.57,1.57,0,0,1,0,3.14Z" transform="translate(-342.63 -309.28)"/>
            <path class="cls-14" d="M456.72,809.83H446.2a1.58,1.58,0,1,1,0-3.15h10.52a1.58,1.58,0,0,1,0,3.15Z" transform="translate(-342.63 -309.28)"/>
            <path class="cls-14" d="M456.72,815.61H446.2a1.57,1.57,0,1,1,0-3.14h10.52a1.57,1.57,0,1,1,0,3.14Z" transform="translate(-342.63 -309.28)"/>
            <path class="cls-14" d="M456.72,821.4H446.2a1.58,1.58,0,1,1,0-3.15h10.52a1.58,1.58,0,0,1,0,3.15Z" transform="translate(-342.63 -309.28)"/>
            <path class="cls-14" d="M456.72,827.18H446.2a1.58,1.58,0,1,1,0-3.15h10.52a1.58,1.58,0,0,1,0,3.15Z" transform="translate(-342.63 -309.28)"/>
            <path class="cls-14" d="M456.72,833H446.2a1.57,1.57,0,1,1,0-3.14h10.52a1.57,1.57,0,1,1,0,3.14Z" transform="translate(-342.63 -309.28)"/>
            <circle class="cls-2" cx="33.23" cy="476.09" r="4.01"/>
            <circle class="cls-2" cx="50.48" cy="476.09" r="4.01"/>
            <rect class="cls-3" x="395.84" y="783.17" width="23.92" height="36.95" transform="translate(866.81 84.57) rotate(90)"/>
            <path class="cls-4" d="M423,809.44a3.12,3.12,0,0,1-3.1-3.48,30.17,30.17,0,0,0,.19-3.31,31,31,0,0,0-2.83-13H410.4a29.31,29.31,0,0,1,.22,3.52,31,31,0,0,1-4.56,16.23H389.33v4.17h36.94v-4.17Z" transform="translate(-342.63 -309.28)"/>
            <rect class="cls-5" x="409.81" y="785.1" width="7.1" height="25.83" transform="translate(868.73 75.38) rotate(90)"/>
            <rect class="cls-5" x="407.02" y="772.26" width="1.83" height="36.68" transform="translate(855.9 73.39) rotate(90)"/>
            <rect class="cls-3" x="32.92" y="433.29" width="17.04" height="45.81"/>
            <rect class="cls-5" x="36.32" y="433.29" width="5.06" height="34.69"/>
            <rect class="cls-5" x="32.92" y="433.29" width="1.3" height="45.54"/>
            <path class="cls-4" d="M388.74,742.56H375.56v1.56H387a1.75,1.75,0,0,1,1.75,1.75v8.34a9.69,9.69,0,0,1-3.36,7.31,31.18,31.18,0,0,0-9.82,15.82v11h17V742.56Z" transform="translate(-342.63 -309.28)"/>
            <rect class="cls-15" x="380.19" y="727.71" width="7.65" height="22.19" transform="translate(-697.42 813.54) rotate(-90)"/>
            <rect class="cls-4" x="388.77" y="736.28" width="7.65" height="5.04" transform="translate(-688.84 822.12) rotate(-90)"/>
            <rect class="cls-4" x="382.18" y="736.82" width="7.65" height="3.97" transform="translate(-695.43 815.53) rotate(-90)"/>
            <rect class="cls-5" x="370.18" y="737.72" width="7.65" height="2.16" transform="translate(-707.43 803.53) rotate(-90)"/>
            <rect class="cls-5" x="375.36" y="736.46" width="7.65" height="4.68" transform="translate(-702.26 808.7) rotate(-90)"/>
            <rect class="cls-3" x="382.54" y="718.53" width="2.95" height="29.94" transform="translate(-692.12 808.24) rotate(-90)"/>
            <rect class="cls-4" x="394.11" y="730.1" width="2.95" height="6.8" transform="translate(-680.55 819.81) rotate(-90)"/>
            <rect class="cls-4" x="385.22" y="730.82" width="2.95" height="5.36" transform="translate(-689.44 810.92) rotate(-90)"/>
            <rect class="cls-5" x="369.03" y="732.04" width="2.95" height="2.91" transform="translate(-705.63 794.73) rotate(-90)"/>
            <rect class="cls-5" x="376.01" y="730.34" width="2.95" height="6.31" transform="translate(-698.65 801.71) rotate(-90)"/>
            <rect class="cls-16" x="30.29" y="425.7" width="22.19" height="1.33"/>
            <circle class="cls-3" cx="384.59" cy="802.65" r="31.24" transform="translate(-797.55 197.76) rotate(-45)"/>
            <path class="cls-17" d="M353.35,802.65c0,.12,0,.24,0,.36A28.19,28.19,0,0,0,392,776.81a27.78,27.78,0,0,0-.38-4.59,31.21,31.21,0,0,0-38.27,30.43Z" transform="translate(-342.63 -309.28)"/>
            <path class="cls-5" d="M354.65,804a31.24,31.24,0,0,1,53.28-22.14,31.24,31.24,0,1,0-45.38,42.9A31.13,31.13,0,0,1,354.65,804Z" transform="translate(-342.63 -309.28)"/>
            <path class="cls-3" d="M406,779.87A31.23,31.23,0,0,1,361.81,824,31.23,31.23,0,1,0,406,779.87Z" transform="translate(-342.63 -309.28)"/>
            <path class="cls-18" d="M384.59,829.88a27.23,27.23,0,1,1,27.22-27.23A27.27,27.27,0,0,1,384.59,829.88Zm0-53.15a25.92,25.92,0,1,0,25.92,25.92A26,26,0,0,0,384.59,776.73Z" transform="translate(-342.63 -309.28)"/>
            <path class="cls-18" d="M384.59,823a20.34,20.34,0,1,1,20.34-20.34A20.36,20.36,0,0,1,384.59,823Zm0-40a19.69,19.69,0,1,0,19.69,19.69A19.71,19.71,0,0,0,384.59,783Z" transform="translate(-342.63 -309.28)"/>
            <circle class="cls-19" cx="384.59" cy="802.65" r="15.51" transform="translate(-797.55 197.76) rotate(-45)"/>
            <g class="cls-20">
                <path class="cls-19" d="M369.56,803.2a15.5,15.5,0,0,1,27.05-10.35A15.5,15.5,0,1,0,373.06,813,15.45,15.45,0,0,1,369.56,803.2Z" transform="translate(-342.63 -309.28)"/>
            </g>
            <circle class="cls-14" cx="384.59" cy="802.65" r="9.44" transform="translate(-820.87 274.97) rotate(-50.19)"/>
            <circle class="cls-14" cx="41.95" cy="481.25" r="1.95"/>
            <circle class="cls-14" cx="41.95" cy="505.74" r="1.95"/>
            <circle class="cls-14" cx="54.2" cy="493.49" r="1.95"/>
            <circle class="cls-14" cx="29.71" cy="493.49" r="1.95"/>
            <circle class="cls-14" cx="50.61" cy="484.84" r="1.95"/>
            <circle class="cls-14" cx="33.3" cy="502.15" r="1.95"/>
            <circle class="cls-14" cx="50.61" cy="502.15" r="1.95"/>
            <circle class="cls-14" cx="33.3" cy="484.84" r="1.95"/>
            <rect class="cls-19" x="83.64" y="476.72" width="7.65" height="31.13"/>
            <rect class="cls-18" x="83.64" y="500.78" width="7.65" height="7.07"/>
            <rect class="cls-18" x="83.64" y="492.29" width="7.65" height="5.57"/>
            <rect class="cls-5" x="83.64" y="476.72" width="7.65" height="3.03"/>
            <rect class="cls-5" x="83.64" y="482.21" width="7.65" height="6.57"/>
            <rect class="cls-19" x="91.29" y="471.28" width="2.95" height="42.01"/>
            <rect class="cls-18" x="91.29" y="503.75" width="2.95" height="9.54"/>
            <rect class="cls-18" x="91.29" y="492.29" width="2.95" height="7.52"/>
            <rect class="cls-21" x="91.29" y="471.28" width="2.95" height="4.09"/>
            <rect class="cls-21" x="91.29" y="478.69" width="2.95" height="8.86"/>
            <rect class="cls-18" x="417.69" y="800.9" width="31.13" height="1.33" transform="translate(892.18 59.03) rotate(90)"/>
            <path class="cls-18" d="M401.53,776.36a31.24,31.24,0,0,1-43.16,43.15,31.24,31.24,0,1,0,43.16-43.15Z" transform="translate(-342.63 -309.28)"/>
            <rect class="cls-18" x="81.36" y="480.41" width="2.28" height="23.9"/>
            <path class="cls-22" d="M1376.75,358.22V746.56H541.55V358.41c48.68-5,130.9-8,215.09-2.88,99.14,6.05,105.42,17.59,176.08,15.32,94-3,102.15-24.07,210.3-27.92,62.31-2.21,114.46,2.83,158.11,7C1324.38,352.21,1353.69,355,1376.75,358.22Z" transform="translate(-342.63 -309.28)"/>
            <rect class="cls-23" x="174.49" y="0.25" width="29.45" height="436.61"/>
            <rect class="cls-24" x="1029.08" y="0.25" width="31.87" height="436.61"/>
            <rect class="cls-25" x="174.49" y="436.31" width="886.45" height="25.5"/>
            <path class="cls-26" d="M565.78,832.48a3.8,3.8,0,0,1-3.81-3.65v-.1l-.1,0a24.55,24.55,0,0,1-16.49-13.39V790.83a24.54,24.54,0,0,1,16.52-13.34l.09,0v-.09a3.84,3.84,0,0,1,3.77-3.26h15.56a3.83,3.83,0,0,1,3.82,3.83v50.71a3.83,3.83,0,0,1-3.82,3.82Z" transform="translate(-342.63 -309.28)"/>
            <path d="M581.34,774.25a3.7,3.7,0,0,1,3.69,3.69v50.72a3.7,3.7,0,0,1-3.69,3.7H565.78a3.68,3.68,0,0,1-3.68-3.54v-.19l-.19,0a24.42,24.42,0,0,1-16.38-13.27V790.89a24.34,24.34,0,0,1,16.42-13.28l.17,0,0-.17a3.72,3.72,0,0,1,3.65-3.15h15.56m0-.25H565.78a3.93,3.93,0,0,0-3.89,3.36,24.79,24.79,0,0,0-16.62,13.47v24.54a24.77,24.77,0,0,0,16.58,13.46,3.94,3.94,0,0,0,3.93,3.78h15.56a3.94,3.94,0,0,0,3.94-4V777.94a3.94,3.94,0,0,0-3.94-3.94Z" transform="translate(-342.63 -309.28)"/>
            <rect class="cls-27" x="242.37" y="469.09" width="313.87" height="49.46"/>
            <path d="M898.75,778.49v49.22H585.13V778.49H898.75m.25-.25H584.88V828H899V778.24Z" transform="translate(-342.63 -309.28)"/>
            <rect class="cls-28" x="219.33" y="468.08" width="51.49" height="51.49" rx="3.96"/>
            <path d="M609.49,777.48a3.83,3.83,0,0,1,3.83,3.83v43.58a3.83,3.83,0,0,1-3.83,3.83H565.92a3.84,3.84,0,0,1-3.83-3.83V781.31a3.84,3.84,0,0,1,3.83-3.83h43.57m0-.25H565.92a4.08,4.08,0,0,0-4.08,4.08v43.58a4.08,4.08,0,0,0,4.08,4.08h43.57a4.08,4.08,0,0,0,4.08-4.08V781.31a4.08,4.08,0,0,0-4.08-4.08Z" transform="translate(-342.63 -309.28)"/>
            <rect class="cls-29" x="219.33" y="464.85" width="23.19" height="58.36" rx="3.78"/>
            <path d="M581.38,774.25A3.66,3.66,0,0,1,585,777.9v50.81a3.66,3.66,0,0,1-3.65,3.65H565.74a3.66,3.66,0,0,1-3.65-3.65V777.9a3.66,3.66,0,0,1,3.65-3.65h15.64m0-.25H565.74a3.9,3.9,0,0,0-3.9,3.9v50.81a3.9,3.9,0,0,0,3.9,3.9h15.64a3.9,3.9,0,0,0,3.9-3.9V777.9a3.9,3.9,0,0,0-3.9-3.9Z" transform="translate(-342.63 -309.28)"/>
            <path class="cls-30" d="M562.29,781.15l-.33,0v-3.73l.33,0h16.88a1.42,1.42,0,0,1,1.54,1.26v1.27a1.43,1.43,0,0,1-1.54,1.26Z" transform="translate(-342.63 -309.28)"/>
            <path d="M579.17,777.48a1.31,1.31,0,0,1,1.42,1.14v1.27a1.31,1.31,0,0,1-1.42,1.14H562.29l-.2,0V777.5l.2,0h16.88m0-.25H562.29a2.13,2.13,0,0,0-.45.06v3.93a2.13,2.13,0,0,0,.45.06h16.88a1.55,1.55,0,0,0,1.67-1.39v-1.27a1.55,1.55,0,0,0-1.67-1.39Z" transform="translate(-342.63 -309.28)"/>
            <path class="cls-30" d="M562.29,789.23l-.33,0v-3.72a1.29,1.29,0,0,1,.33,0h16.88a1.43,1.43,0,0,1,1.54,1.26V788a1.42,1.42,0,0,1-1.54,1.26Z" transform="translate(-342.63 -309.28)"/>
            <path d="M579.17,785.57a1.31,1.31,0,0,1,1.42,1.13V788a1.31,1.31,0,0,1-1.42,1.14H562.29l-.2,0v-3.51h17.08m0-.25H562.29a2.14,2.14,0,0,0-.45,0v3.93a1.63,1.63,0,0,0,.45.06h16.88a1.55,1.55,0,0,0,1.67-1.39V786.7a1.55,1.55,0,0,0-1.67-1.38Z" transform="translate(-342.63 -309.28)"/>
            <path class="cls-30" d="M562.29,796.91l-.33,0v-3.72a1.29,1.29,0,0,1,.33,0h16.88a1.43,1.43,0,0,1,1.54,1.26v1.27a1.42,1.42,0,0,1-1.54,1.26Z" transform="translate(-342.63 -309.28)"/>
            <path d="M579.17,793.25a1.31,1.31,0,0,1,1.42,1.13v1.27a1.31,1.31,0,0,1-1.42,1.14H562.29l-.2,0v-3.51h17.08m0-.25H562.29a2.14,2.14,0,0,0-.45,0V797a1.63,1.63,0,0,0,.45.06h16.88a1.55,1.55,0,0,0,1.67-1.39v-1.27a1.55,1.55,0,0,0-1.67-1.38Z" transform="translate(-342.63 -309.28)"/>
            <path class="cls-30" d="M562.29,805a1.35,1.35,0,0,1-.33,0v-3.72l.33,0h16.88a1.42,1.42,0,0,1,1.54,1.25v1.28a1.43,1.43,0,0,1-1.54,1.26Z" transform="translate(-342.63 -309.28)"/>
            <path d="M579.17,801.33a1.31,1.31,0,0,1,1.42,1.14v1.27a1.31,1.31,0,0,1-1.42,1.13H562.09v-3.51l.2,0h16.88m0-.25H562.29a1.63,1.63,0,0,0-.45.06v3.93a2.14,2.14,0,0,0,.45,0h16.88a1.55,1.55,0,0,0,1.67-1.38v-1.27a1.55,1.55,0,0,0-1.67-1.39Z" transform="translate(-342.63 -309.28)"/>
            <path class="cls-30" d="M562.29,813.08l-.33,0v-3.73l.33,0h16.88a1.42,1.42,0,0,1,1.54,1.26v1.27a1.42,1.42,0,0,1-1.54,1.26Z" transform="translate(-342.63 -309.28)"/>
            <path d="M579.17,809.41a1.31,1.31,0,0,1,1.42,1.14v1.27a1.31,1.31,0,0,1-1.42,1.14H562.29l-.2,0v-3.51l.2,0h16.88m0-.25H562.29a2.13,2.13,0,0,0-.45.06v3.93a2.13,2.13,0,0,0,.45.06h16.88a1.55,1.55,0,0,0,1.67-1.39v-1.27a1.55,1.55,0,0,0-1.67-1.39Z" transform="translate(-342.63 -309.28)"/>
            <path class="cls-30" d="M562.29,821.17a2,2,0,0,1-.33,0v-3.72a1.35,1.35,0,0,1,.33,0h16.88a1.43,1.43,0,0,1,1.54,1.26v1.28a1.43,1.43,0,0,1-1.54,1.26Z" transform="translate(-342.63 -309.28)"/>
            <path d="M579.17,817.5a1.31,1.31,0,0,1,1.42,1.13v1.28a1.31,1.31,0,0,1-1.42,1.13H562.09v-3.52h17.08m0-.25H562.29a1.63,1.63,0,0,0-.45.06v3.92a1.63,1.63,0,0,0,.45.06h16.88a1.55,1.55,0,0,0,1.67-1.38v-1.28a1.55,1.55,0,0,0-1.67-1.38Z" transform="translate(-342.63 -309.28)"/>
            <path class="cls-30" d="M562.29,828.84l-.33,0v-3.72a1.35,1.35,0,0,1,.33,0h16.88a1.43,1.43,0,0,1,1.54,1.26v1.28a1.42,1.42,0,0,1-1.54,1.25Z" transform="translate(-342.63 -309.28)"/>
            <path d="M579.17,825.18a1.31,1.31,0,0,1,1.42,1.13v1.28a1.31,1.31,0,0,1-1.42,1.13H562.09v-3.52h17.08m0-.25H562.29a1.63,1.63,0,0,0-.45.06v3.92a1.63,1.63,0,0,0,.45.06h16.88a1.55,1.55,0,0,0,1.67-1.38v-1.28a1.55,1.55,0,0,0-1.67-1.38Z" transform="translate(-342.63 -309.28)"/>
            <path class="cls-31" d="M562.44,781.15l-.32,0v-3.73l.32,0h16.75a1.41,1.41,0,0,1,1.52,1.26v1.27a1.41,1.41,0,0,1-1.52,1.26Z" transform="translate(-342.63 -309.28)"/>
            <path class="cls-32" d="M579.19,777.48a1.29,1.29,0,0,1,1.4,1.14v1.27a1.29,1.29,0,0,1-1.4,1.14H562.44l-.19,0V777.5l.19,0h16.75m0-.25H562.44a2.12,2.12,0,0,0-.44.06v3.93a2.12,2.12,0,0,0,.44.06h16.75a1.54,1.54,0,0,0,1.65-1.39v-1.27a1.54,1.54,0,0,0-1.65-1.39Z" transform="translate(-342.63 -309.28)"/>
            <path class="cls-31" d="M562.44,789.23l-.32,0v-3.72a1.27,1.27,0,0,1,.32,0h16.75a1.41,1.41,0,0,1,1.52,1.26V788a1.41,1.41,0,0,1-1.52,1.26Z" transform="translate(-342.63 -309.28)"/>
            <path class="cls-32" d="M579.19,785.57a1.29,1.29,0,0,1,1.4,1.13V788a1.29,1.29,0,0,1-1.4,1.14H562.25v-3.52h16.94m0-.25H562.44a2.12,2.12,0,0,0-.44,0v3.93a1.61,1.61,0,0,0,.44.06h16.75a1.54,1.54,0,0,0,1.65-1.39V786.7a1.54,1.54,0,0,0-1.65-1.38Z" transform="translate(-342.63 -309.28)"/>
            <path class="cls-31" d="M562.44,796.91l-.32,0v-3.72a1.27,1.27,0,0,1,.32,0h16.75a1.41,1.41,0,0,1,1.52,1.26v1.27a1.41,1.41,0,0,1-1.52,1.26Z" transform="translate(-342.63 -309.28)"/>
            <path class="cls-32" d="M579.19,793.25a1.29,1.29,0,0,1,1.4,1.13v1.27a1.29,1.29,0,0,1-1.4,1.14H562.44l-.19,0v-3.51h16.94m0-.25H562.44a2.12,2.12,0,0,0-.44,0V797a1.61,1.61,0,0,0,.44.06h16.75a1.54,1.54,0,0,0,1.65-1.39v-1.27a1.54,1.54,0,0,0-1.65-1.38Z" transform="translate(-342.63 -309.28)"/>
            <path class="cls-31" d="M562.44,805a1.33,1.33,0,0,1-.32,0v-3.72l.32,0h16.75a1.4,1.4,0,0,1,1.52,1.25v1.28a1.41,1.41,0,0,1-1.52,1.26Z" transform="translate(-342.63 -309.28)"/>
            <path class="cls-32" d="M579.19,801.33a1.29,1.29,0,0,1,1.4,1.14v1.27a1.29,1.29,0,0,1-1.4,1.13H562.25v-3.52h16.94m0-.25H562.44a1.61,1.61,0,0,0-.44.06v3.93a2.12,2.12,0,0,0,.44,0h16.75a1.54,1.54,0,0,0,1.65-1.38v-1.27a1.54,1.54,0,0,0-1.65-1.39Z" transform="translate(-342.63 -309.28)"/>
            <path class="cls-31" d="M562.44,813.08l-.32,0v-3.73l.32,0h16.75a1.41,1.41,0,0,1,1.52,1.26v1.27a1.41,1.41,0,0,1-1.52,1.26Z" transform="translate(-342.63 -309.28)"/>
            <path class="cls-32" d="M579.19,809.41a1.29,1.29,0,0,1,1.4,1.14v1.27a1.29,1.29,0,0,1-1.4,1.14H562.44l-.19,0v-3.51l.19,0h16.75m0-.25H562.44a2.12,2.12,0,0,0-.44.06v3.93a2.12,2.12,0,0,0,.44.06h16.75a1.54,1.54,0,0,0,1.65-1.39v-1.27a1.54,1.54,0,0,0-1.65-1.39Z" transform="translate(-342.63 -309.28)"/>
            <path class="cls-31" d="M562.44,821.17a2,2,0,0,1-.32,0v-3.72a1.33,1.33,0,0,1,.32,0h16.75a1.41,1.41,0,0,1,1.52,1.26v1.28a1.41,1.41,0,0,1-1.52,1.26Z" transform="translate(-342.63 -309.28)"/>
            <path class="cls-32" d="M579.19,817.5a1.29,1.29,0,0,1,1.4,1.13v1.28a1.29,1.29,0,0,1-1.4,1.13H562.25v-3.52h16.94m0-.25H562.44a1.61,1.61,0,0,0-.44.06v3.92a1.61,1.61,0,0,0,.44.06h16.75a1.54,1.54,0,0,0,1.65-1.38v-1.28a1.54,1.54,0,0,0-1.65-1.38Z" transform="translate(-342.63 -309.28)"/>
            <path class="cls-31" d="M562.44,828.84l-.32,0v-3.72a1.33,1.33,0,0,1,.32,0h16.75a1.41,1.41,0,0,1,1.52,1.26v1.28a1.4,1.4,0,0,1-1.52,1.25Z" transform="translate(-342.63 -309.28)"/>
            <path class="cls-32" d="M579.19,825.18a1.29,1.29,0,0,1,1.4,1.13v1.28a1.29,1.29,0,0,1-1.4,1.13H562.25v-3.52h16.94m0-.25H562.44a1.61,1.61,0,0,0-.44.06v3.92a1.61,1.61,0,0,0,.44.06h16.75a1.54,1.54,0,0,0,1.65-1.38v-1.28a1.54,1.54,0,0,0-1.65-1.38Z" transform="translate(-342.63 -309.28)"/>
            <rect class="cls-33" x="198.31" y="482.14" width="4.2" height="23.58"/>
            <path d="M545,791.55v23.32h-3.95V791.55H545m.25-.25h-4.45v23.82h4.45V791.3Z" transform="translate(-342.63 -309.28)"/>
            <rect class="cls-34" x="180.12" y="482.14" width="4.52" height="23.58"/>
            <path d="M527.15,791.55v23.32h-4.27V791.55h4.27m.25-.25h-4.77v23.82h4.77V791.3Z" transform="translate(-342.63 -309.28)"/>
            <rect class="cls-35" x="184.29" y="478.87" width="14.05" height="30.72" rx="2.27"/>
            <path d="M538.7,788.27a2.15,2.15,0,0,1,2.15,2.15v26.17a2.15,2.15,0,0,1-2.15,2.15h-9.5a2.15,2.15,0,0,1-2.15-2.15V790.42a2.15,2.15,0,0,1,2.15-2.15h9.5m0-.25h-9.5a2.4,2.4,0,0,0-2.4,2.4v26.17a2.4,2.4,0,0,0,2.4,2.4h9.5a2.4,2.4,0,0,0,2.4-2.4V790.42a2.4,2.4,0,0,0-2.4-2.4Z" transform="translate(-342.63 -309.28)"/>
            <path class="cls-31" d="M527.05,793.85h-.12v-2.7l.12,0h9.54a.86.86,0,0,1,.81.9V793a.86.86,0,0,1-.81.89Z" transform="translate(-342.63 -309.28)"/>
            <path class="cls-32" d="M536.59,791.25a.73.73,0,0,1,.68.77V793a.74.74,0,0,1-.68.77h-9.54v-2.48h9.54m0-.25h-9.54a.73.73,0,0,0-.25,0v2.89a.74.74,0,0,0,.25.05h9.54a1,1,0,0,0,.93-1V792a1,1,0,0,0-.93-1Z" transform="translate(-342.63 -309.28)"/>
            <path class="cls-31" d="M527.05,799.25h-.12v-2.7h9.66a.86.86,0,0,1,.81.89v.94a.86.86,0,0,1-.81.89Z" transform="translate(-342.63 -309.28)"/>
            <path class="cls-32" d="M536.59,796.65a.74.74,0,0,1,.68.77v.94a.74.74,0,0,1-.68.77h-9.54v-2.48h9.54m0-.25h-9.54a1.09,1.09,0,0,0-.25,0v2.9a1.09,1.09,0,0,0,.25,0h9.54a1,1,0,0,0,.93-1v-.94a1,1,0,0,0-.93-1Z" transform="translate(-342.63 -309.28)"/>
            <path class="cls-31" d="M527.05,804.85l-.12,0v-2.7h9.66a.86.86,0,0,1,.81.9V804a.86.86,0,0,1-.81.9Z" transform="translate(-342.63 -309.28)"/>
            <path class="cls-32" d="M536.59,802.25a.73.73,0,0,1,.68.77V804a.73.73,0,0,1-.68.77h-9.54v-2.47h9.54m0-.25h-9.54a.73.73,0,0,0-.25,0v2.89a.73.73,0,0,0,.25,0h9.54a1,1,0,0,0,.93-1V803a1,1,0,0,0-.93-1Z" transform="translate(-342.63 -309.28)"/>
            <path class="cls-31" d="M527.05,810.44h-.12v-2.7h9.66a.86.86,0,0,1,.81.89v.94a.86.86,0,0,1-.81.89Z" transform="translate(-342.63 -309.28)"/>
            <path class="cls-32" d="M536.59,807.84a.74.74,0,0,1,.68.77v.94a.74.74,0,0,1-.68.77h-9.54v-2.48h9.54m0-.25h-9.54a1.09,1.09,0,0,0-.25,0v2.9a1.09,1.09,0,0,0,.25,0h9.54a1,1,0,0,0,.93-1v-.94a1,1,0,0,0-.93-1Z" transform="translate(-342.63 -309.28)"/>
            <path class="cls-31" d="M527.05,816.1h-.12v-2.7l.12,0h9.54a.87.87,0,0,1,.81.9v.94a.86.86,0,0,1-.81.89Z" transform="translate(-342.63 -309.28)"/>
            <path class="cls-32" d="M536.59,813.5a.73.73,0,0,1,.68.77v.94a.74.74,0,0,1-.68.77h-9.54V813.5h9.54m0-.25h-9.54a1.09,1.09,0,0,0-.25,0v2.89a.74.74,0,0,0,.25.05h9.54a1,1,0,0,0,.93-1v-.94a1,1,0,0,0-.93-1Z" transform="translate(-342.63 -309.28)"/>
            <path class="cls-36" d="M918.37,832.48a3.83,3.83,0,0,1-3.82-3.82V778a3.83,3.83,0,0,1,3.82-3.83h15.56a3.85,3.85,0,0,1,3.77,3.26v.09l.09,0a24.54,24.54,0,0,1,16.53,13.39v24.49a24.57,24.57,0,0,1-16.49,13.34l-.09,0v.1a3.8,3.8,0,0,1-3.81,3.65Z" transform="translate(-342.63 -309.28)"/>
            <path d="M933.93,774.25a3.72,3.72,0,0,1,3.65,3.15l0,.17.17,0a24.37,24.37,0,0,1,16.42,13.28v24.43a24.44,24.44,0,0,1-16.38,13.27l-.19,0v.19a3.68,3.68,0,0,1-3.68,3.54H918.37a3.7,3.7,0,0,1-3.69-3.7V777.94a3.69,3.69,0,0,1,3.69-3.69h15.56m0-.25H918.37a3.94,3.94,0,0,0-3.94,3.94v50.72a3.94,3.94,0,0,0,3.94,4h15.56a3.94,3.94,0,0,0,3.93-3.78,24.79,24.79,0,0,0,16.58-13.46V790.83a24.79,24.79,0,0,0-16.62-13.47,3.93,3.93,0,0,0-3.89-3.36Z" transform="translate(-342.63 -309.28)"/>
            <path class="cls-37" d="M547.58,468.08h43.58a4,4,0,0,1,4,4v43.58a4,4,0,0,1-4,4H547.58a4,4,0,0,1-4-4V472A4,4,0,0,1,547.58,468.08Z"/>
            <path d="M933.79,777.48a3.84,3.84,0,0,1,3.83,3.83v43.58a3.84,3.84,0,0,1-3.83,3.83H890.21a3.84,3.84,0,0,1-3.83-3.83V781.31a3.84,3.84,0,0,1,3.83-3.83h43.58m0-.25H890.21a4.08,4.08,0,0,0-4.08,4.08v43.58a4.08,4.08,0,0,0,4.08,4.08h43.58a4.08,4.08,0,0,0,4.08-4.08V781.31a4.08,4.08,0,0,0-4.08-4.08Z" transform="translate(-342.63 -309.28)"/>
            <path class="cls-38" d="M575.57,464.85h15.88a3.66,3.66,0,0,1,3.66,3.66v51a3.65,3.65,0,0,1-3.65,3.65H575.57a3.66,3.66,0,0,1-3.66-3.66v-51A3.66,3.66,0,0,1,575.57,464.85Z"/>
            <path d="M934.09,774.25a3.53,3.53,0,0,1,3.53,3.53v51.05a3.54,3.54,0,0,1-3.53,3.53H918.21a3.54,3.54,0,0,1-3.53-3.53V777.78a3.53,3.53,0,0,1,3.53-3.53h15.88m0-.25H918.21a3.78,3.78,0,0,0-3.78,3.78v51.05a3.78,3.78,0,0,0,3.78,3.78h15.88a3.78,3.78,0,0,0,3.78-3.78V777.78a3.78,3.78,0,0,0-3.78-3.78Z" transform="translate(-342.63 -309.28)"/>
            <path class="cls-30" d="M920.53,781.15a1.42,1.42,0,0,1-1.53-1.26v-1.27a1.42,1.42,0,0,1,1.53-1.26h16.89l.33,0v3.73l-.33,0Z" transform="translate(-342.63 -309.28)"/>
            <path d="M937.42,777.48l.2,0V781l-.2,0H920.53a1.3,1.3,0,0,1-1.41-1.14v-1.27a1.3,1.3,0,0,1,1.41-1.14h16.89m0-.25H920.53a1.55,1.55,0,0,0-1.66,1.39v1.27a1.55,1.55,0,0,0,1.66,1.39h16.89a2.13,2.13,0,0,0,.45-.06v-3.93a2.13,2.13,0,0,0-.45-.06Z" transform="translate(-342.63 -309.28)"/>
            <path class="cls-30" d="M920.53,789.23A1.42,1.42,0,0,1,919,788V786.7a1.42,1.42,0,0,1,1.53-1.26h16.89a1.35,1.35,0,0,1,.33,0v3.72l-.33,0Z" transform="translate(-342.63 -309.28)"/>
            <path d="M937.42,785.57h.2v3.51l-.2,0H920.53a1.3,1.3,0,0,1-1.41-1.14V786.7a1.3,1.3,0,0,1,1.41-1.13h16.89m0-.25H920.53a1.55,1.55,0,0,0-1.66,1.38V788a1.55,1.55,0,0,0,1.66,1.39h16.89a1.63,1.63,0,0,0,.45-.06v-3.93a2.14,2.14,0,0,0-.45,0Z" transform="translate(-342.63 -309.28)"/>
            <path class="cls-30" d="M920.53,796.91a1.42,1.42,0,0,1-1.53-1.26v-1.27a1.42,1.42,0,0,1,1.53-1.26h16.89a1.35,1.35,0,0,1,.33,0v3.72l-.33,0Z" transform="translate(-342.63 -309.28)"/>
            <path d="M937.42,793.25h.2v3.51l-.2,0H920.53a1.3,1.3,0,0,1-1.41-1.14v-1.27a1.3,1.3,0,0,1,1.41-1.13h16.89m0-.25H920.53a1.55,1.55,0,0,0-1.66,1.38v1.27a1.55,1.55,0,0,0,1.66,1.39h16.89a1.63,1.63,0,0,0,.45-.06v-3.93a2.14,2.14,0,0,0-.45,0Z" transform="translate(-342.63 -309.28)"/>
            <path class="cls-30" d="M920.53,805a1.42,1.42,0,0,1-1.53-1.26v-1.28a1.41,1.41,0,0,1,1.53-1.25h16.89l.33,0V805a1.35,1.35,0,0,1-.33,0Z" transform="translate(-342.63 -309.28)"/>
            <path d="M937.42,801.33l.2,0v3.51H920.53a1.3,1.3,0,0,1-1.41-1.13v-1.27a1.3,1.3,0,0,1,1.41-1.14h16.89m0-.25H920.53a1.55,1.55,0,0,0-1.66,1.39v1.27a1.55,1.55,0,0,0,1.66,1.38h16.89a2.14,2.14,0,0,0,.45,0v-3.93a1.63,1.63,0,0,0-.45-.06Z" transform="translate(-342.63 -309.28)"/>
            <path class="cls-30" d="M920.53,813.08a1.42,1.42,0,0,1-1.53-1.26v-1.27a1.42,1.42,0,0,1,1.53-1.26h16.89l.33,0v3.73l-.33,0Z" transform="translate(-342.63 -309.28)"/>
            <path d="M937.42,809.41l.2,0v3.51l-.2,0H920.53a1.3,1.3,0,0,1-1.41-1.14v-1.27a1.3,1.3,0,0,1,1.41-1.14h16.89m0-.25H920.53a1.55,1.55,0,0,0-1.66,1.39v1.27a1.55,1.55,0,0,0,1.66,1.39h16.89a2.13,2.13,0,0,0,.45-.06v-3.93a2.13,2.13,0,0,0-.45-.06Z" transform="translate(-342.63 -309.28)"/>
            <path class="cls-30" d="M920.53,821.17a1.42,1.42,0,0,1-1.53-1.26v-1.28a1.42,1.42,0,0,1,1.53-1.26h16.89a1.35,1.35,0,0,1,.33,0v3.72a2.11,2.11,0,0,1-.33,0Z" transform="translate(-342.63 -309.28)"/>
            <path d="M937.42,817.5h.2V821H920.53a1.3,1.3,0,0,1-1.41-1.13v-1.28a1.3,1.3,0,0,1,1.41-1.13h16.89m0-.25H920.53a1.55,1.55,0,0,0-1.66,1.38v1.28a1.55,1.55,0,0,0,1.66,1.38h16.89a1.63,1.63,0,0,0,.45-.06v-3.92a1.63,1.63,0,0,0-.45-.06Z" transform="translate(-342.63 -309.28)"/>
            <path class="cls-30" d="M920.53,828.84a1.41,1.41,0,0,1-1.53-1.25v-1.28a1.42,1.42,0,0,1,1.53-1.26h16.89a1.35,1.35,0,0,1,.33,0v3.72l-.33,0Z" transform="translate(-342.63 -309.28)"/>
            <path d="M937.42,825.18h.2v3.52H920.53a1.3,1.3,0,0,1-1.41-1.13v-1.28a1.3,1.3,0,0,1,1.41-1.13h16.89m0-.25H920.53a1.55,1.55,0,0,0-1.66,1.38v1.28a1.55,1.55,0,0,0,1.66,1.38h16.89a1.63,1.63,0,0,0,.45-.06V825a1.63,1.63,0,0,0-.45-.06Z" transform="translate(-342.63 -309.28)"/>
            <path class="cls-31" d="M920.53,781.15a1.42,1.42,0,0,1-1.53-1.26v-1.27a1.42,1.42,0,0,1,1.53-1.26h16.89l.33,0v3.73l-.33,0Z" transform="translate(-342.63 -309.28)"/>
            <path class="cls-31" d="M937.42,777.48l.2,0V781l-.2,0H920.53a1.3,1.3,0,0,1-1.41-1.14v-1.27a1.3,1.3,0,0,1,1.41-1.14h16.89m0-.25H920.53a1.55,1.55,0,0,0-1.66,1.39v1.27a1.55,1.55,0,0,0,1.66,1.39h16.89a2.13,2.13,0,0,0,.45-.06v-3.93a2.13,2.13,0,0,0-.45-.06Z" transform="translate(-342.63 -309.28)"/>
            <path class="cls-31" d="M920.53,789.23A1.42,1.42,0,0,1,919,788V786.7a1.42,1.42,0,0,1,1.53-1.26h16.89a1.35,1.35,0,0,1,.33,0v3.72l-.33,0Z" transform="translate(-342.63 -309.28)"/>
            <path class="cls-31" d="M937.42,785.57h.2v3.51l-.2,0H920.53a1.3,1.3,0,0,1-1.41-1.14V786.7a1.3,1.3,0,0,1,1.41-1.13h16.89m0-.25H920.53a1.55,1.55,0,0,0-1.66,1.38V788a1.55,1.55,0,0,0,1.66,1.39h16.89a1.63,1.63,0,0,0,.45-.06v-3.93a2.14,2.14,0,0,0-.45,0Z" transform="translate(-342.63 -309.28)"/>
            <path class="cls-31" d="M920.53,796.91a1.42,1.42,0,0,1-1.53-1.26v-1.27a1.42,1.42,0,0,1,1.53-1.26h16.89a1.35,1.35,0,0,1,.33,0v3.72l-.33,0Z" transform="translate(-342.63 -309.28)"/>
            <path class="cls-31" d="M937.42,793.25h.2v3.51l-.2,0H920.53a1.3,1.3,0,0,1-1.41-1.14v-1.27a1.3,1.3,0,0,1,1.41-1.13h16.89m0-.25H920.53a1.55,1.55,0,0,0-1.66,1.38v1.27a1.55,1.55,0,0,0,1.66,1.39h16.89a1.63,1.63,0,0,0,.45-.06v-3.93a2.14,2.14,0,0,0-.45,0Z" transform="translate(-342.63 -309.28)"/>
            <path class="cls-31" d="M920.53,805a1.42,1.42,0,0,1-1.53-1.26v-1.28a1.41,1.41,0,0,1,1.53-1.25h16.89l.33,0V805a1.35,1.35,0,0,1-.33,0Z" transform="translate(-342.63 -309.28)"/>
            <path class="cls-31" d="M937.42,801.33l.2,0v3.51H920.53a1.3,1.3,0,0,1-1.41-1.13v-1.27a1.3,1.3,0,0,1,1.41-1.14h16.89m0-.25H920.53a1.55,1.55,0,0,0-1.66,1.39v1.27a1.55,1.55,0,0,0,1.66,1.38h16.89a2.14,2.14,0,0,0,.45,0v-3.93a1.63,1.63,0,0,0-.45-.06Z" transform="translate(-342.63 -309.28)"/>
            <path class="cls-31" d="M920.53,813.08a1.42,1.42,0,0,1-1.53-1.26v-1.27a1.42,1.42,0,0,1,1.53-1.26h16.89l.33,0v3.73l-.33,0Z" transform="translate(-342.63 -309.28)"/>
            <path class="cls-31" d="M937.42,809.41l.2,0v3.51l-.2,0H920.53a1.3,1.3,0,0,1-1.41-1.14v-1.27a1.3,1.3,0,0,1,1.41-1.14h16.89m0-.25H920.53a1.55,1.55,0,0,0-1.66,1.39v1.27a1.55,1.55,0,0,0,1.66,1.39h16.89a2.13,2.13,0,0,0,.45-.06v-3.93a2.13,2.13,0,0,0-.45-.06Z" transform="translate(-342.63 -309.28)"/>
            <path class="cls-31" d="M920.53,821.17a1.42,1.42,0,0,1-1.53-1.26v-1.28a1.42,1.42,0,0,1,1.53-1.26h16.89a1.35,1.35,0,0,1,.33,0v3.72a2.11,2.11,0,0,1-.33,0Z" transform="translate(-342.63 -309.28)"/>
            <path class="cls-31" d="M937.42,817.5h.2V821H920.53a1.3,1.3,0,0,1-1.41-1.13v-1.28a1.3,1.3,0,0,1,1.41-1.13h16.89m0-.25H920.53a1.55,1.55,0,0,0-1.66,1.38v1.28a1.55,1.55,0,0,0,1.66,1.38h16.89a1.63,1.63,0,0,0,.45-.06v-3.92a1.63,1.63,0,0,0-.45-.06Z" transform="translate(-342.63 -309.28)"/>
            <path class="cls-31" d="M920.53,828.84a1.41,1.41,0,0,1-1.53-1.25v-1.28a1.42,1.42,0,0,1,1.53-1.26h16.89a1.35,1.35,0,0,1,.33,0v3.72l-.33,0Z" transform="translate(-342.63 -309.28)"/>
            <path class="cls-31" d="M937.42,825.18h.2v3.52H920.53a1.3,1.3,0,0,1-1.41-1.13v-1.28a1.3,1.3,0,0,1,1.41-1.13h16.89m0-.25H920.53a1.55,1.55,0,0,0-1.66,1.38v1.28a1.55,1.55,0,0,0,1.66,1.38h16.89a1.63,1.63,0,0,0,.45-.06V825a1.63,1.63,0,0,0-.45-.06Z" transform="translate(-342.63 -309.28)"/>
            <rect class="cls-39" x="611.93" y="482.14" width="4.2" height="23.58"/>
            <path d="M958.64,791.55v23.32h-3.95V791.55h3.95m.25-.25h-4.45v23.82h4.45V791.3Z" transform="translate(-342.63 -309.28)"/>
            <rect class="cls-40" x="629.8" y="482.14" width="4.52" height="23.58"/>
            <path d="M976.83,791.55v23.32h-4.27V791.55h4.27m.25-.25h-4.77v23.82h4.77V791.3Z" transform="translate(-342.63 -309.28)"/>
            <rect class="cls-41" x="616.1" y="478.87" width="14.05" height="30.72" rx="3.05"/>
            <path d="M969.73,788.27a2.93,2.93,0,0,1,2.93,2.92v24.63a2.93,2.93,0,0,1-2.93,2.92h-7.94a2.93,2.93,0,0,1-2.93-2.92V791.19a2.93,2.93,0,0,1,2.93-2.92h7.94m0-.25h-7.94a3.17,3.17,0,0,0-3.18,3.17v24.63a3.17,3.17,0,0,0,3.18,3.17h7.94a3.17,3.17,0,0,0,3.18-3.17V791.19a3.17,3.17,0,0,0-3.18-3.17Z" transform="translate(-342.63 -309.28)"/>
            <path class="cls-31" d="M963.12,793.85a.85.85,0,0,1-.81-.89V792a.85.85,0,0,1,.81-.9h9.53l.13,0v2.7h-9.66Z" transform="translate(-342.63 -309.28)"/>
            <path class="cls-32" d="M972.65,791.25h0v2.48h-9.54a.73.73,0,0,1-.68-.77V792a.72.72,0,0,1,.68-.77h9.53m0-.25h-9.53a1,1,0,0,0-.93,1V793a1,1,0,0,0,.93,1h9.53a.75.75,0,0,0,.26-.05V791a.75.75,0,0,0-.26,0Z" transform="translate(-342.63 -309.28)"/>
            <path class="cls-31" d="M963.12,799.25a.85.85,0,0,1-.81-.89v-.94a.85.85,0,0,1,.81-.89h9.66v2.7h-9.66Z" transform="translate(-342.63 -309.28)"/>
            <path class="cls-32" d="M972.65,796.65h0v2.48h-9.54a.73.73,0,0,1-.68-.77v-.94a.73.73,0,0,1,.68-.77h9.53m0-.25h-9.53a1,1,0,0,0-.93,1v.94a1,1,0,0,0,.93,1h9.53a1.09,1.09,0,0,0,.26,0v-2.9a1.09,1.09,0,0,0-.26,0Z" transform="translate(-342.63 -309.28)"/>
            <path class="cls-31" d="M963.12,804.85a.85.85,0,0,1-.81-.9V803a.85.85,0,0,1,.81-.9h9.66v2.7l-.13,0Z" transform="translate(-342.63 -309.28)"/>
            <path class="cls-32" d="M972.65,802.25h0v2.47h-9.54a.72.72,0,0,1-.68-.77V803a.72.72,0,0,1,.68-.77h9.53m0-.25h-9.53a1,1,0,0,0-.93,1V804a1,1,0,0,0,.93,1h9.53a.75.75,0,0,0,.26,0V802a.75.75,0,0,0-.26,0Z" transform="translate(-342.63 -309.28)"/>
            <path class="cls-31" d="M963.12,810.44a.85.85,0,0,1-.81-.89v-.94a.85.85,0,0,1,.81-.89h9.66v2.7h-9.66Z" transform="translate(-342.63 -309.28)"/>
            <path class="cls-32" d="M972.65,807.84h0v2.48h-9.54a.73.73,0,0,1-.68-.77v-.94a.73.73,0,0,1,.68-.77h9.53m0-.25h-9.53a1,1,0,0,0-.93,1v.94a1,1,0,0,0,.93,1h9.53a1.09,1.09,0,0,0,.26,0v-2.9a1.09,1.09,0,0,0-.26,0Z" transform="translate(-342.63 -309.28)"/>
            <path class="cls-31" d="M963.12,816.1a.85.85,0,0,1-.81-.89v-.94a.86.86,0,0,1,.81-.9h9.53l.13,0v2.7h-9.66Z" transform="translate(-342.63 -309.28)"/>
            <path class="cls-32" d="M972.65,813.5h0V816h-9.54a.73.73,0,0,1-.68-.77v-.94a.72.72,0,0,1,.68-.77h9.53m0-.25h-9.53a1,1,0,0,0-.93,1v.94a1,1,0,0,0,.93,1h9.53a.75.75,0,0,0,.26-.05v-2.89a1.09,1.09,0,0,0-.26,0Z" transform="translate(-342.63 -309.28)"/>
            <rect class="cls-42" x="126.73" y="486.8" width="48.72" height="14.38"/>
            <rect class="cls-42" x="123.9" y="482.01" width="2.71" height="23.4"/>
            <rect class="cls-42" x="175.55" y="485.7" width="4.81" height="16.26"/>
            <rect class="cls-42" x="654.74" y="435.98" width="14.38" height="33.65"/>
            <path class="cls-42" d="M1011.11,779.48H997.26v9.21s-.61,7.55-8.65,7.55H976.37v14h13.41s21.19,1.72,21.26-18.05Z" transform="translate(-342.63 -309.28)"/>
            <rect class="cls-42" x="653.8" y="433" width="16.26" height="4.81"/>
            <rect class="cls-42" x="653.8" y="467" width="16.26" height="4.81"/>
            <rect class="cls-42" x="634.12" y="485.7" width="4.81" height="16.26"/>
            <path class="cls-43" d="M376.76,403.39h13.85v-9.21s.61-7.56,8.65-7.56H411.5V372.67H398.09S376.9,371,376.83,390.72Z" transform="translate(-342.63 -309.28)"/>
            <rect class="cls-42" x="33.49" y="96.04" width="14.38" height="323.42"/>
            <rect class="cls-42" x="28.52" y="419.79" width="24.67" height="2.85"/>
            <rect class="cls-42" x="32.17" y="93.22" width="17" height="3"/>
            <rect class="cls-42" x="67.62" y="63.11" width="137.21" height="14.23"/>
            <rect class="cls-42" x="403.5" y="378" width="17" height="3" transform="translate(-310.13 482.22) rotate(-90)"/>
            <rect class="cls-42" x="539.33" y="377.98" width="17.28" height="3.05" transform="translate(-174.16 618.19) rotate(-90)"/>
        </g>
    </g>
</svg>