<svg id="Layer_1" data-name="Layer 1" xmlns="http://www.w3.org/2000/svg" xmlns:xlink="http://www.w3.org/1999/xlink" viewBox="0 0 68 232"><defs><style>.cls-1{fill:url(#linear-gradient);}.cls-2{fill:#4e4e4e;}.cls-3,.cls-4,.cls-5,.cls-6,.cls-7,.cls-8,.cls-9{fill:none;}.cls-3,.cls-6,.cls-7,.cls-8,.cls-9{stroke:#a5aad6;}.cls-3,.cls-4,.cls-5,.cls-6,.cls-7,.cls-8{stroke-linecap:round;stroke-linejoin:round;}.cls-3{stroke-width:40px;opacity:0.2;}.cls-4{stroke:#acaad5;stroke-width:31px;opacity:0.25;}.cls-5{stroke:#a7acd6;stroke-width:21px;opacity:0.3;}.cls-6{stroke-width:11px;}.cls-7{stroke-width:9px;}.cls-8{stroke-width:8px;}.cls-9{stroke-miterlimit:10;stroke-width:6px;}</style><linearGradient id="linear-gradient" x1="1723.63" y1="-333.97" x2="1723.63" y2="-361.31" gradientTransform="matrix(0, 1, 1, 0, 653.26, -1327.09)" gradientUnits="userSpaceOnUse"><stop offset="0.04" stop-color="#7b92ca"/><stop offset="0.6" stop-color="#cfdbe6"/><stop offset="0.62" stop-color="#c6d3e3"/><stop offset="0.73" stop-color="#a5b7d8"/><stop offset="0.83" stop-color="#8ea2d0"/><stop offset="0.92" stop-color="#8096cc"/><stop offset="1" stop-color="#7b92ca"/></linearGradient></defs><g id="Light"><path class="cls-1" d="M305.62,492.82A13.69,13.69,0,0,1,292,479.15V313.94a13.67,13.67,0,1,1,27.34,0V479.15A13.69,13.69,0,0,1,305.62,492.82Z" transform="translate(-272.5 -280.5)"/><path class="cls-2" d="M305.62,300.39a13.57,13.57,0,0,1,13.55,13.54V479.15a13.55,13.55,0,0,1-27.1,0V313.93a13.57,13.57,0,0,1,13.55-13.54m0-.25h0a13.84,13.84,0,0,0-13.8,13.79V479.15a13.84,13.84,0,0,0,13.8,13.79h0a13.84,13.84,0,0,0,13.8-13.79V313.93a13.84,13.84,0,0,0-13.8-13.79Z" transform="translate(-272.5 -280.5)"/><rect class="cls-3" x="20" y="20" width="28" height="192" rx="13.5"/><rect class="cls-4" x="20" y="20" width="28" height="192" rx="13.5"/><rect class="cls-5" x="20" y="20" width="28" height="192" rx="13.5"/><rect class="cls-6" x="20" y="20" width="28" height="192" rx="13.5"/><rect class="cls-7" x="20" y="20" width="28" height="192" rx="13.5"/><rect class="cls-8" x="20" y="20" width="28" height="192" rx="13.5"/><rect class="cls-9" x="20" y="20" width="28" height="192" rx="13.5"/></g></svg>