<svg xmlns="http://www.w3.org/2000/svg" xmlns:xlink="http://www.w3.org/1999/xlink" viewBox="0 0 122.74 113.25"><defs><style>.cls-1{isolation:isolate;}.cls-2{fill:#3c3c3b;}.cls-10,.cls-11,.cls-12,.cls-14,.cls-15,.cls-2,.cls-3,.cls-4,.cls-5,.cls-6,.cls-7,.cls-8,.cls-9{stroke:#000;stroke-miterlimit:10;stroke-width:0.25px;}.cls-3,.cls-4,.cls-5{fill:lime;}.cls-12,.cls-15,.cls-4,.cls-8,.cls-9{mix-blend-mode:multiply;}.cls-10,.cls-13,.cls-5,.cls-7{mix-blend-mode:screen;}.cls-6{fill:#c1c1c1;}.cls-7{fill:#334d2e;}.cls-8{fill:#a0b9d1;}.cls-9{fill:url(#New_Gradient_Swatch_2);}.cls-10{fill:#4d3c2e;}.cls-11{fill:red;}.cls-12{fill:#047cc2;}.cls-14{fill:#000100;}.cls-15{fill:url(#New_Gradient_Swatch_2-2);}</style><linearGradient id="New_Gradient_Swatch_2" x1="945.31" y1="552.54" x2="982.06" y2="552.54" gradientUnits="userSpaceOnUse"><stop offset="0" stop-color="#9e9e9e"/><stop offset="0.09" stop-color="#a3a3a3"/><stop offset="0.19" stop-color="#b1b1b1"/><stop offset="0.27" stop-color="#c1c1c1"/><stop offset="0.35" stop-color="#cacaca"/><stop offset="0.44" stop-color="#d0d0d0"/><stop offset="0.69" stop-color="#e8e8e8"/><stop offset="0.89" stop-color="#ededed"/><stop offset="1" stop-color="#ddd"/></linearGradient><linearGradient id="New_Gradient_Swatch_2-2" x1="80.56" y1="68.87" x2="82.83" y2="68.87" xlink:href="#New_Gradient_Swatch_2"/></defs><g class="cls-1"><g id="Layer_1" data-name="Layer 1"><rect class="cls-2" x="17.33" y="99.99" width="52.77" height="2.5"/><path class="cls-2" d="M973.24,596.78h5.29c.86,0,1.69-.82,1.49-2.25l-3.89-19.76-12,3.46L971.85,596C972.22,596.82,972.61,596.78,973.24,596.78Z" transform="translate(-899.23 -483.66)"/><path class="cls-2" d="M912.41,596.78h-5.3c-.85,0-1.69-.82-1.49-2.25l3.9-19.76,11.94,3.46L913.79,596C913.42,596.82,913,596.78,912.41,596.78Z" transform="translate(-899.23 -483.66)"/><rect class="cls-3" x="99.38" y="37.52" width="17.03" height="64.43"/><path class="cls-4" d="M1010.38,521.18a68.66,68.66,0,0,1,3.54,22.82c0,18.87-6.2,34.17-13.83,34.17a6.19,6.19,0,0,1-1.48-.19v7.62h17V521.18Z" transform="translate(-899.23 -483.66)"/><rect class="cls-4" x="99.38" y="97.74" width="17.03" height="4.2"/><rect class="cls-5" x="99.38" y="37.52" width="17.03" height="3.2"/><polygon class="cls-3" points="99.38 101.94 93.17 95.92 93.17 43.54 99.38 37.52 99.38 101.94"/><polygon class="cls-4" points="93.17 95.92 99.38 101.94 99.38 97.75 93.17 91.72 93.17 95.92"/><polygon class="cls-5" points="94.88 97.43 94.88 45.05 99.38 40.68 99.38 37.52 93.17 43.54 93.17 95.92 99.38 101.94 99.38 101.8 94.88 97.43"/><polygon class="cls-3" points="116.41 101.94 122.62 95.92 122.62 43.54 116.41 37.52 116.41 101.94"/><path class="cls-4" d="M1020.12,525.53v48a8.06,8.06,0,0,1-2.45,5.79l-2,2v4.27l6.21-6V527.2Z" transform="translate(-899.23 -483.66)"/><rect class="cls-3" x="2.38" y="43.54" width="80.31" height="52.38" rx="2.16"/><path class="cls-5" d="M901.61,529V562.8a44.68,44.68,0,0,0,22,5.55c19.93,0,36.09-11.91,36.09-26.6a21.8,21.8,0,0,0-5.88-14.55H903.44A1.83,1.83,0,0,0,901.61,529Z" transform="translate(-899.23 -483.66)"/><path class="cls-4" d="M980,527.2h-7v20.43a27.6,27.6,0,0,1-27.71,27.5H901.61v2.55a1.91,1.91,0,0,0,1.92,1.9H980a1.9,1.9,0,0,0,1.91-1.9V529.1A1.9,1.9,0,0,0,980,527.2Z" transform="translate(-899.23 -483.66)"/><path class="cls-5" d="M905.11,541.89a10.51,10.51,0,0,1,10.55-10.48h66.25V529a1.83,1.83,0,0,0-1.83-1.82H903.44a1.83,1.83,0,0,0-1.83,1.82v48.74a1.83,1.83,0,0,0,1.83,1.82h1.67Z" transform="translate(-899.23 -483.66)"/><path class="cls-6" d="M981.91,545H901.05a1.68,1.68,0,1,1,0-3.35h80.86a1.68,1.68,0,1,1,0,3.35Z" transform="translate(-899.23 -483.66)"/><path class="cls-7" d="M901.05,542.3h80.86a1.67,1.67,0,0,1,1.63,1.35,1.8,1.8,0,0,0,.06-.32,1.69,1.69,0,0,0-1.69-1.68H901.05a1.69,1.69,0,0,0-1.69,1.68,1.23,1.23,0,0,0,.07.32A1.65,1.65,0,0,1,901.05,542.3Z" transform="translate(-899.23 -483.66)"/><path class="cls-8" d="M983.26,544H899.7a1.3,1.3,0,0,1-.21,0,1.7,1.7,0,0,0,1.56,1h80.86a1.7,1.7,0,0,0,1.56-1A1.3,1.3,0,0,1,983.26,544Z" transform="translate(-899.23 -483.66)"/><rect class="cls-8" x="2.38" y="61.34" width="80.31" height="1.68"/><path class="cls-6" d="M981.91,551.3H901.05a1.68,1.68,0,1,1,0-3.35h80.86a1.68,1.68,0,1,1,0,3.35Z" transform="translate(-899.23 -483.66)"/><path class="cls-7" d="M901.05,548.6h80.86a1.67,1.67,0,0,1,1.63,1.35,1.8,1.8,0,0,0,.06-.32,1.69,1.69,0,0,0-1.69-1.68H901.05a1.69,1.69,0,0,0-1.69,1.68,1.23,1.23,0,0,0,.07.32A1.65,1.65,0,0,1,901.05,548.6Z" transform="translate(-899.23 -483.66)"/><path class="cls-8" d="M983.26,550.32H899.7a1.3,1.3,0,0,1-.21,0,1.7,1.7,0,0,0,1.56,1h80.86a1.7,1.7,0,0,0,1.56-1A1.3,1.3,0,0,1,983.26,550.32Z" transform="translate(-899.23 -483.66)"/><rect class="cls-8" x="2.38" y="67.64" width="80.31" height="1.68"/><path class="cls-6" d="M981.91,557.6H901.05a1.68,1.68,0,1,1,0-3.35h80.86a1.68,1.68,0,1,1,0,3.35Z" transform="translate(-899.23 -483.66)"/><path class="cls-7" d="M901.05,554.9h80.86a1.67,1.67,0,0,1,1.63,1.35,1.8,1.8,0,0,0,.06-.32,1.69,1.69,0,0,0-1.69-1.68H901.05a1.69,1.69,0,0,0-1.69,1.68,1.23,1.23,0,0,0,.07.32A1.65,1.65,0,0,1,901.05,554.9Z" transform="translate(-899.23 -483.66)"/><path class="cls-8" d="M983.26,556.62H899.7a1.3,1.3,0,0,1-.21,0,1.7,1.7,0,0,0,1.56,1h80.86a1.7,1.7,0,0,0,1.56-1A1.3,1.3,0,0,1,983.26,556.62Z" transform="translate(-899.23 -483.66)"/><rect class="cls-8" x="2.38" y="73.94" width="80.31" height="1.68"/><path class="cls-6" d="M981.91,563.9H901.05a1.68,1.68,0,1,1,0-3.35h80.86a1.68,1.68,0,1,1,0,3.35Z" transform="translate(-899.23 -483.66)"/><path class="cls-7" d="M901.05,561.2h80.86a1.67,1.67,0,0,1,1.63,1.35,1.75,1.75,0,0,0,.06-.33,1.68,1.68,0,0,0-1.69-1.67H901.05a1.68,1.68,0,0,0-1.69,1.67,1.21,1.21,0,0,0,.07.33A1.65,1.65,0,0,1,901.05,561.2Z" transform="translate(-899.23 -483.66)"/><path class="cls-8" d="M983.26,562.92H899.7c-.08,0-.14,0-.21,0a1.7,1.7,0,0,0,1.56,1h80.86a1.7,1.7,0,0,0,1.56-1C983.4,562.88,983.34,562.92,983.26,562.92Z" transform="translate(-899.23 -483.66)"/><rect class="cls-8" x="2.38" y="80.24" width="80.31" height="1.68"/><path class="cls-6" d="M981.91,570.2H901.05a1.68,1.68,0,1,1,0-3.35h80.86a1.68,1.68,0,1,1,0,3.35Z" transform="translate(-899.23 -483.66)"/><path class="cls-7" d="M901.05,567.5h80.86a1.67,1.67,0,0,1,1.63,1.35,1.75,1.75,0,0,0,.06-.33,1.68,1.68,0,0,0-1.69-1.67H901.05a1.68,1.68,0,0,0-1.69,1.67,1.21,1.21,0,0,0,.07.33A1.65,1.65,0,0,1,901.05,567.5Z" transform="translate(-899.23 -483.66)"/><path class="cls-8" d="M983.26,569.22H899.7a1.29,1.29,0,0,1-.21-.05,1.71,1.71,0,0,0,1.56,1h80.86a1.71,1.71,0,0,0,1.56-1A1.29,1.29,0,0,1,983.26,569.22Z" transform="translate(-899.23 -483.66)"/><rect class="cls-8" x="2.38" y="86.54" width="80.31" height="1.68"/><path class="cls-6" d="M981.91,576.5H901.05a1.68,1.68,0,1,1,0-3.35h80.86a1.68,1.68,0,1,1,0,3.35Z" transform="translate(-899.23 -483.66)"/><path class="cls-7" d="M901.05,573.8h80.86a1.67,1.67,0,0,1,1.63,1.35,1.75,1.75,0,0,0,.06-.33,1.68,1.68,0,0,0-1.69-1.67H901.05a1.68,1.68,0,0,0-1.69,1.67,1.21,1.21,0,0,0,.07.33A1.65,1.65,0,0,1,901.05,573.8Z" transform="translate(-899.23 -483.66)"/><path class="cls-8" d="M983.26,575.51H899.7a1.3,1.3,0,0,1-.21,0,1.71,1.71,0,0,0,1.56,1h80.86a1.71,1.71,0,0,0,1.56-1A1.3,1.3,0,0,1,983.26,575.51Z" transform="translate(-899.23 -483.66)"/><rect class="cls-8" x="2.38" y="92.84" width="80.31" height="1.68"/><path class="cls-3" d="M20.27,38.35H62.4a1.86,1.86,0,0,1,1.86,1.86v3.33a0,0,0,0,1,0,0H18.41a0,0,0,0,1,0,0V40.21A1.86,1.86,0,0,1,20.27,38.35Z"/><path class="cls-5" d="M918.33,524.36a1.64,1.64,0,0,1,1.64-1.63h42.58a1.66,1.66,0,0,1,.8.23,1.63,1.63,0,0,0-1.49-1H919.28a1.63,1.63,0,0,0-1.64,1.62v3.57h.69Z" transform="translate(-899.23 -483.66)"/><path class="cls-4" d="M961.86,522h-3.09a1.64,1.64,0,0,1,.09.44,3.58,3.58,0,0,1-3.59,3.57H917.64v1.18H963.5v-3.57A1.62,1.62,0,0,0,961.86,522Z" transform="translate(-899.23 -483.66)"/><path class="cls-3" d="M20.27,31.49H62.4a1.86,1.86,0,0,1,1.86,1.86v3.33a0,0,0,0,1,0,0H18.41a0,0,0,0,1,0,0V33.35A1.86,1.86,0,0,1,20.27,31.49Z"/><path class="cls-5" d="M918.33,517.5a1.64,1.64,0,0,1,1.64-1.63h42.58a1.56,1.56,0,0,1,.8.24,1.64,1.64,0,0,0-1.49-1H919.28a1.64,1.64,0,0,0-1.64,1.63v3.57h.69Z" transform="translate(-899.23 -483.66)"/><path class="cls-4" d="M961.86,515.15h-3.09a1.71,1.71,0,0,1,.09.45,3.58,3.58,0,0,1-3.59,3.57H917.64v1.18H963.5v-3.57A1.63,1.63,0,0,0,961.86,515.15Z" transform="translate(-899.23 -483.66)"/><rect class="cls-3" x="20.19" y="36.69" width="42.3" height="1.66"/><path class="cls-6" d="M1012.35,526.34h-10.47a1.55,1.55,0,1,1,0-3.1h10.47a1.55,1.55,0,1,1,0,3.1Z" transform="translate(-899.23 -483.66)"/><path class="cls-6" d="M1012.35,532.05h-10.47a1.55,1.55,0,1,1,0-3.1h10.47a1.55,1.55,0,1,1,0,3.1Z" transform="translate(-899.23 -483.66)"/><path class="cls-6" d="M1012.35,537.77h-10.47a1.56,1.56,0,1,1,0-3.11h10.47a1.56,1.56,0,1,1,0,3.11Z" transform="translate(-899.23 -483.66)"/><path class="cls-6" d="M1012.35,543.48h-10.47a1.56,1.56,0,1,1,0-3.11h10.47a1.56,1.56,0,1,1,0,3.11Z" transform="translate(-899.23 -483.66)"/><path class="cls-6" d="M1012.35,549.19h-10.47a1.56,1.56,0,1,1,0-3.11h10.47a1.56,1.56,0,1,1,0,3.11Z" transform="translate(-899.23 -483.66)"/><path class="cls-6" d="M1012.35,554.9h-10.47a1.55,1.55,0,1,1,0-3.1h10.47a1.55,1.55,0,1,1,0,3.1Z" transform="translate(-899.23 -483.66)"/><path class="cls-6" d="M1012.35,560.62h-10.47a1.56,1.56,0,1,1,0-3.11h10.47a1.56,1.56,0,1,1,0,3.11Z" transform="translate(-899.23 -483.66)"/><path class="cls-6" d="M1012.35,566.33h-10.47a1.56,1.56,0,1,1,0-3.11h10.47a1.56,1.56,0,1,1,0,3.11Z" transform="translate(-899.23 -483.66)"/><path class="cls-6" d="M1012.35,572h-10.47a1.56,1.56,0,1,1,0-3.11h10.47a1.56,1.56,0,1,1,0,3.11Z" transform="translate(-899.23 -483.66)"/><path class="cls-6" d="M1012.35,577.75h-10.47a1.55,1.55,0,1,1,0-3.1h10.47a1.55,1.55,0,1,1,0,3.1Z" transform="translate(-899.23 -483.66)"/><path class="cls-6" d="M1012.35,583.46h-10.47a1.55,1.55,0,1,1,0-3.1h10.47a1.55,1.55,0,1,1,0,3.1Z" transform="translate(-899.23 -483.66)"/><ellipse class="cls-2" cx="32.68" cy="52.8" rx="3.99" ry="3.96"/><ellipse class="cls-2" cx="49.84" cy="52.8" rx="3.99" ry="3.96"/><rect class="cls-3" x="951.88" y="534.16" width="23.62" height="36.75" transform="translate(616.99 -894.81) rotate(90)"/><path class="cls-9" d="M978.78,560.24a3.09,3.09,0,0,1-3.08-3.45,29.27,29.27,0,0,0,.18-3.26,30.45,30.45,0,0,0-2.81-12.8h-6.79A30.28,30.28,0,0,1,962,560.24H945.31v4.11h36.75v-4.11Z" transform="translate(-899.23 -483.66)"/><rect class="cls-10" x="965.71" y="536.1" width="7.01" height="25.7" transform="translate(618.93 -903.93) rotate(90)"/><rect class="cls-10" x="962.92" y="523.39" width="1.8" height="36.49" transform="translate(606.22 -905.85) rotate(90)"/><rect class="cls-3" x="32.38" y="10.53" width="16.95" height="45.24"/><rect class="cls-5" x="35.76" y="10.53" width="5.03" height="34.26"/><rect class="cls-5" x="32.38" y="10.53" width="1.29" height="44.97"/><path class="cls-4" d="M944.73,494.19H931.61v1.54H943a1.73,1.73,0,0,1,1.74,1.73v8.24a9.51,9.51,0,0,1-3.35,7.21,30.78,30.78,0,0,0-9.77,15.63v10.89h17V494.19Z" transform="translate(-899.23 -483.66)"/><rect class="cls-3" x="936.25" y="479.44" width="7.55" height="22.07" transform="translate(-449.68 946.85) rotate(-90)"/><rect class="cls-4" x="944.78" y="487.97" width="7.55" height="5.01" transform="translate(-441.15 955.38) rotate(-90)"/><rect class="cls-4" x="938.23" y="488.5" width="7.55" height="3.95" transform="translate(-447.71 948.82) rotate(-90)"/><rect class="cls-5" x="926.29" y="489.4" width="7.55" height="2.15" transform="translate(-459.64 936.89) rotate(-90)"/><rect class="cls-5" x="931.44" y="488.15" width="7.55" height="4.65" transform="translate(-454.5 942.03) rotate(-90)"/><rect class="cls-3" x="938.57" y="470.35" width="2.92" height="29.78" transform="translate(-444.45 941.61) rotate(-90)"/><rect class="cls-4" x="950.08" y="481.86" width="2.92" height="6.76" transform="translate(-432.94 953.12) rotate(-90)"/><rect class="cls-4" x="941.24" y="482.58" width="2.92" height="5.33" transform="translate(-441.78 944.28) rotate(-90)"/><rect class="cls-5" x="925.13" y="483.79" width="2.92" height="2.9" transform="translate(-457.89 928.17) rotate(-90)"/><rect class="cls-5" x="932.08" y="482.1" width="2.92" height="6.28" transform="translate(-450.94 935.12) rotate(-90)"/><rect class="cls-4" x="29.76" y="3.04" width="22.07" height="1.31"/><ellipse class="cls-3" cx="41.36" cy="69.87" rx="31.08" ry="30.85"/><path class="cls-5" d="M909.52,553.53c0,.12,0,.24,0,.36A28.08,28.08,0,0,0,948,528a27.06,27.06,0,0,0-.38-4.53,31.07,31.07,0,0,0-38.07,30Z" transform="translate(-899.23 -483.66)"/><path class="cls-5" d="M910.81,555.89a31.13,31.13,0,0,1,53-21.86,31.12,31.12,0,0,0-54.29,20.5,30.64,30.64,0,0,0,9.15,21.86A30.64,30.64,0,0,1,910.81,555.89Z" transform="translate(-899.23 -483.66)"/><path class="cls-11" d="M961.85,531a30.57,30.57,0,0,1,8.42,21.1,31.12,31.12,0,0,1-52.33,22.49,31.11,31.11,0,0,0,53.73-21.1A30.64,30.64,0,0,0,961.85,531Z" transform="translate(-899.23 -483.66)"/><path class="cls-4" d="M940.6,580.41a26.89,26.89,0,1,1,27.08-26.88A27,27,0,0,1,940.6,580.41Zm0-52.48a25.6,25.6,0,1,0,25.78,25.6A25.72,25.72,0,0,0,940.6,527.93Z" transform="translate(-899.23 -483.66)"/><path class="cls-12" d="M940.6,573.61a20.08,20.08,0,1,1,20.23-20.08A20.18,20.18,0,0,1,940.6,573.61Zm0-39.52a19.44,19.44,0,1,0,19.58,19.44A19.54,19.54,0,0,0,940.6,534.09Z" transform="translate(-899.23 -483.66)"/><ellipse class="cls-5" cx="41.36" cy="69.87" rx="15.43" ry="15.32"/><g class="cls-13"><path class="cls-3" d="M925.65,554.07a15.44,15.44,0,0,1,26.9-10.22,15.45,15.45,0,0,0-27.38,9.68,15.19,15.19,0,0,0,4,10.22A15.19,15.19,0,0,1,925.65,554.07Z" transform="translate(-899.23 -483.66)"/></g><ellipse class="cls-14" cx="41.36" cy="69.87" rx="9.39" ry="9.32"/><ellipse class="cls-14" cx="41.36" cy="57.9" rx="1.94" ry="1.93"/><ellipse class="cls-14" cx="41.36" cy="82.08" rx="1.94" ry="1.93"/><ellipse class="cls-14" cx="53.54" cy="69.99" rx="1.94" ry="1.93"/><ellipse class="cls-14" cx="29.18" cy="69.99" rx="1.94" ry="1.93"/><ellipse class="cls-14" cx="49.97" cy="61.44" rx="1.94" ry="1.93"/><ellipse class="cls-14" cx="32.75" cy="78.54" rx="1.94" ry="1.93"/><ellipse class="cls-14" cx="49.97" cy="78.54" rx="1.94" ry="1.93"/><ellipse class="cls-14" cx="32.75" cy="61.44" rx="1.94" ry="1.93"/><rect class="cls-3" x="82.83" y="53.42" width="7.61" height="30.74"/><rect class="cls-4" x="82.83" y="77.19" width="7.61" height="6.98"/><rect class="cls-4" x="82.83" y="68.79" width="7.61" height="5.5"/><rect class="cls-5" x="82.83" y="53.42" width="7.61" height="2.99"/><rect class="cls-5" x="82.83" y="58.85" width="7.61" height="6.48"/><rect class="cls-3" x="90.44" y="48.05" width="2.94" height="41.48"/><rect class="cls-4" x="90.44" y="80.12" width="2.94" height="9.42"/><rect class="cls-4" x="90.44" y="68.79" width="2.94" height="7.42"/><rect class="cls-5" x="90.44" y="48.05" width="2.94" height="4.04"/><rect class="cls-5" x="90.44" y="55.37" width="2.94" height="8.75"/><rect class="cls-4" x="973.64" y="551.79" width="30.74" height="1.32" transform="translate(642.23 -920.21) rotate(90)"/><path class="cls-4" d="M957.45,527.56a30.64,30.64,0,0,1,4.92,16.65,31.12,31.12,0,0,1-47.85,26,31.12,31.12,0,0,0,57.23-16.65A30.77,30.77,0,0,0,957.45,527.56Z" transform="translate(-899.23 -483.66)"/><rect class="cls-15" x="80.56" y="57.07" width="2.27" height="23.61"/></g></g></svg>