<svg id="Layer_1" data-name="Layer 1"
    xmlns="http://www.w3.org/2000/svg"
    xmlns:xlink="http://www.w3.org/1999/xlink" viewBox="0 0 121.81 203.65">
    <defs>
        <style>.cls-1,.cls-10,.cls-11,.cls-12,.cls-13,.cls-14,.cls-15,.cls-16,.cls-17,.cls-18,.cls-19,.cls-2,.cls-20,.cls-3,.cls-4,.cls-5,.cls-6,.cls-7,.cls-8,.cls-9{stroke:#000;stroke-miterlimit:10;}.cls-1{fill:url(#New_Gradient_Swatch_6);}.cls-2{fill:url(#New_Gradient_Swatch_5);}.cls-3{fill:url(#New_Gradient_Swatch_6-2);}.cls-4{fill:url(#New_Gradient_Swatch_1);}.cls-5{fill:url(#New_Gradient_Swatch_5-2);}.cls-6{fill:url(#New_Gradient_Swatch_5-3);}.cls-7{fill:url(#New_Gradient_Swatch_1-2);}.cls-8{fill:url(#New_Gradient_Swatch_5-4);}.cls-9{fill:url(#New_Gradient_Swatch_6-3);}.cls-10{fill:url(#New_Gradient_Swatch_5-5);}.cls-11{fill:url(#New_Gradient_Swatch_1-3);}.cls-12{fill:url(#New_Gradient_Swatch_5-6);}.cls-13{fill:url(#New_Gradient_Swatch_6-4);}.cls-14{fill:url(#New_Gradient_Swatch_5-7);}.cls-15{fill:url(#New_Gradient_Swatch_6-5);}.cls-16{fill:url(#New_Gradient_Swatch_1-4);}.cls-17{fill:url(#New_Gradient_Swatch_1-5);}.cls-18{fill:url(#New_Gradient_Swatch_1-6);}.cls-19{fill:url(#New_Gradient_Swatch_1-7);}.cls-20{fill:url(#New_Gradient_Swatch_5-8);}</style>
        <linearGradient id="New_Gradient_Swatch_6" x1="409.91" y1="58.88" x2="530.8" y2="58.88" gradientTransform="translate(531.96 114.58) rotate(179.35)" gradientUnits="userSpaceOnUse">
            <stop offset="0" stop-color="#9e9e9e"/>
            <stop offset="0.09" stop-color="#a3a3a3"/>
            <stop offset="0.19" stop-color="#b1b1b1"/>
            <stop offset="0.27" stop-color="#c1c1c1"/>
            <stop offset="0.35" stop-color="#cacaca"/>
            <stop offset="0.44" stop-color="#d0d0d0"/>
            <stop offset="0.69" stop-color="#e8e8e8"/>
            <stop offset="0.89" stop-color="#ededed"/>
            <stop offset="1" stop-color="#ddd"/>
        </linearGradient>
        <linearGradient id="New_Gradient_Swatch_5" x1="452.95" y1="10.28" x2="489.61" y2="10.28" gradientTransform="translate(-222 247.66)" gradientUnits="userSpaceOnUse">
            <stop offset="0" stop-color="#6e6e6e"/>
            <stop offset="0.15" stop-color="#696969"/>
            <stop offset="0.35" stop-color="#909090"/>
            <stop offset="0.47" stop-color="#a8a8a8"/>
            <stop offset="0.89" stop-color="#a9a9a9"/>
        </linearGradient>
        <linearGradient id="New_Gradient_Swatch_6-2" x1="455.33" y1="-11.9" x2="486.31" y2="-11.9" gradientTransform="translate(-220.83 292.02)" xlink:href="#New_Gradient_Swatch_6"/>
        <linearGradient id="New_Gradient_Swatch_1" x1="466.15" y1="3.23" x2="476.78" y2="3.23" gradientTransform="translate(-222.29 261.78)" gradientUnits="userSpaceOnUse">
            <stop offset="0" stop-color="#d1d1d1"/>
            <stop offset="0.12" stop-color="#d6d6d6"/>
            <stop offset="0.26" stop-color="#e4e4e4"/>
            <stop offset="0.27" stop-color="#e5e5e5"/>
            <stop offset="0.35" stop-color="#ebebeb"/>
            <stop offset="0.44" stop-color="#eee"/>
            <stop offset="0.69" stop-color="#fcfcfc"/>
            <stop offset="0.89" stop-color="#fff"/>
            <stop offset="1" stop-color="#f6f6f6"/>
        </linearGradient>
        <linearGradient id="New_Gradient_Swatch_5-2" x1="459.71" y1="-24.18" x2="466.15" y2="-24.18" gradientTransform="translate(-204.91 316.5)" xlink:href="#New_Gradient_Swatch_5"/>
        <linearGradient id="New_Gradient_Swatch_5-3" x1="476.86" y1="-24.55" x2="483.46" y2="-24.55" gradientTransform="translate(-239.37 317.43)" xlink:href="#New_Gradient_Swatch_5"/>
        <linearGradient id="New_Gradient_Swatch_1-2" x1="452.06" y1="-50.86" x2="490.38" y2="-50.86" gradientTransform="translate(-221.19 369.94)" xlink:href="#New_Gradient_Swatch_1"/>
        <linearGradient id="New_Gradient_Swatch_5-4" x1="463.12" y1="-75.7" x2="479.16" y2="-75.7" gradientTransform="translate(-220.76 419.62)" xlink:href="#New_Gradient_Swatch_5"/>
        <linearGradient id="New_Gradient_Swatch_6-3" x1="468.2" y1="-80.92" x2="475.16" y2="-80.92" gradientTransform="translate(-221.77 430.07)" xlink:href="#New_Gradient_Swatch_6"/>
        <linearGradient id="New_Gradient_Swatch_5-5" x1="435.65" y1="19.06" x2="465.77" y2="19.06" gradientTransform="translate(-180.96 229.89)" xlink:href="#New_Gradient_Swatch_5"/>
        <linearGradient id="New_Gradient_Swatch_1-3" x1="435.65" y1="8.85" x2="456.55" y2="8.85" gradientTransform="translate(-171.63 250.25)" xlink:href="#New_Gradient_Swatch_1"/>
        <linearGradient id="New_Gradient_Swatch_5-6" x1="428.3" y1="58.67" x2="511.47" y2="58.67" gradientTransform="translate(531.96 114.58) rotate(179.35)" xlink:href="#New_Gradient_Swatch_5"/>
        <linearGradient id="New_Gradient_Swatch_6-4" x1="439.99" y1="58.8" x2="499.34" y2="58.8" xlink:href="#New_Gradient_Swatch_6"/>
        <linearGradient id="New_Gradient_Swatch_5-7" x1="443.28" y1="58.6" x2="495.62" y2="58.6" gradientTransform="translate(531.96 114.58) rotate(179.35)" xlink:href="#New_Gradient_Swatch_5"/>
        <linearGradient id="New_Gradient_Swatch_6-5" x1="458.82" y1="58.57" x2="479.92" y2="58.57" xlink:href="#New_Gradient_Swatch_6"/>
        <linearGradient id="New_Gradient_Swatch_1-4" x1="434.58" y1="90.49" x2="450.21" y2="90.49" gradientTransform="translate(531.96 114.58) rotate(179.35)" xlink:href="#New_Gradient_Swatch_1"/>
        <linearGradient id="New_Gradient_Swatch_1-5" x1="492.4" y1="90.49" x2="508.02" y2="90.49" gradientTransform="translate(531.96 114.58) rotate(179.35)" xlink:href="#New_Gradient_Swatch_1"/>
        <linearGradient id="New_Gradient_Swatch_1-6" x1="492.4" y1="27.44" x2="508.02" y2="27.44" gradientTransform="translate(531.96 114.58) rotate(179.35)" xlink:href="#New_Gradient_Swatch_1"/>
        <linearGradient id="New_Gradient_Swatch_1-7" x1="434.58" y1="27.71" x2="450.21" y2="27.71" gradientTransform="translate(531.96 114.58) rotate(179.35)" xlink:href="#New_Gradient_Swatch_1"/>
        <linearGradient id="New_Gradient_Swatch_5-8" x1="443.7" y1="8.52" x2="448.51" y2="8.52" gradientTransform="translate(531.96 114.58) rotate(179.35)" xlink:href="#New_Gradient_Swatch_5"/>
    </defs>
    <polygon class="cls-1" points="17.1 19.4 35.18 6.25 56.78 0.51 79 2.96 98.83 13.28 113.6 30.06 121.31 51.04 120.92 73.39 112.48 94.09 97.13 110.35 76.95 119.96 54.65 121.63 33.26 115.14 15.66 101.35 4.23 82.14 0.51 60.1 5 38.2 17.1 19.4"/>
    <rect class="cls-2" x="230.95" y="244.01" width="36.67" height="27.87" transform="translate(312.76 364.73) rotate(179.35)"/>
    <rect class="cls-3" x="234.5" y="271.87" width="30.98" height="16.5" transform="translate(314.43 409.08) rotate(179.35)"/>
    <rect class="cls-4" x="243.86" y="249.88" width="10.63" height="30.25" transform="translate(312.64 378.85) rotate(179.35)"/>
    <rect class="cls-5" x="254.8" y="288.28" width="6.44" height="8.07" transform="translate(330.63 433.37) rotate(179.35)"/>
    <rect class="cls-6" x="237.49" y="288.84" width="6.6" height="8.07" transform="translate(296.19 434.69) rotate(179.35)"/>
    <rect class="cls-7" x="230.87" y="297.18" width="38.32" height="43.82" transform="translate(314.95 486.99) rotate(179.35)"/>
    <rect class="cls-8" x="242.37" y="340.99" width="16.04" height="5.87" transform="translate(315.95 536.67) rotate(179.35)"/>
    <rect class="cls-9" x="246.43" y="346.86" width="6.97" height="4.58" transform="translate(315.05 547.13) rotate(179.35)"/>
    <rect class="cls-10" x="254.7" y="244.09" width="30.11" height="9.71" transform="translate(353.61 346.5) rotate(179.35)"/>
    <rect class="cls-11" x="264.02" y="254.24" width="20.9" height="9.71" transform="translate(363.16 366.76) rotate(179.35)"/>
    <polygon class="cls-12" points="31.26 32.59 43.7 23.54 58.56 19.59 73.85 21.28 87.49 28.38 97.65 39.92 102.95 54.36 102.68 69.74 96.88 83.98 86.32 95.16 72.43 101.77 57.09 102.92 42.38 98.45 30.27 88.97 22.41 75.75 19.84 60.59 22.94 45.52 31.26 32.59"/>
    <polygon class="cls-13" points="40.13 40.66 49 34.2 59.61 31.38 70.52 32.59 80.25 37.65 87.5 45.89 91.29 56.19 91.1 67.16 86.95 77.33 79.42 85.31 69.51 90.02 58.56 90.84 48.06 87.66 39.42 80.89 33.81 71.46 31.98 60.64 34.19 49.89 40.13 40.66"/>
    <polygon class="cls-14" points="43.07 43.44 50.95 37.66 60.32 35.07 69.92 36.03 78.45 40.41 84.76 47.61 88 56.66 87.73 66.34 83.99 75.35 77.27 82.46 68.5 86.71 58.85 87.54 49.63 84.82 42.08 78.93 37.22 70.67 35.71 61.13 37.75 51.63 43.07 43.44"/>
    <polygon class="cls-15" points="54.37 54.11 57.55 51.78 61.33 50.73 65.2 51.12 68.64 52.89 71.19 55.79 72.49 59.44 72.38 63.35 70.87 66.98 68.17 69.84 64.63 71.56 60.74 71.89 57.02 70.8 53.97 68.42 52.01 65.09 51.4 61.25 52.23 57.41 54.37 54.11"/>
    <circle class="cls-16" cx="88.58" cy="29.08" r="7.81"/>
    <circle class="cls-17" cx="30.76" cy="29.74" r="7.81"/>
    <circle class="cls-18" cx="31.47" cy="92.78" r="7.81"/>
    <circle class="cls-19" cx="89.28" cy="91.86" r="7.81"/>
    <circle class="cls-20" cx="85.79" cy="111.09" r="2.41"/>
</svg>