<svg id="Layer_1" data-name="Layer 1"
    xmlns="http://www.w3.org/2000/svg"
    xmlns:xlink="http://www.w3.org/1999/xlink" viewBox="0 0 121.81 203.65">
    <defs>
        <style>.cls-1,.cls-10,.cls-11,.cls-12,.cls-13,.cls-14,.cls-15,.cls-16,.cls-17,.cls-18,.cls-19,.cls-2,.cls-20,.cls-3,.cls-4,.cls-5,.cls-6,.cls-7,.cls-8,.cls-9{stroke:#000;stroke-miterlimit:10;}.cls-1{fill:url(#New_Gradient_Swatch_8);}.cls-2{fill:url(#New_Gradient_Swatch_8-2);}.cls-3{fill:url(#New_Gradient_Swatch_8-3);}.cls-4{fill:url(#New_Gradient_Swatch_8-4);}.cls-5{fill:url(#New_Gradient_Swatch_8-5);}.cls-6{fill:url(#New_Gradient_Swatch_8-6);}.cls-7{fill:url(#New_Gradient_Swatch_8-7);}.cls-8{fill:url(#New_Gradient_Swatch_8-8);}.cls-9{fill:url(#New_Gradient_Swatch_8-9);}.cls-10{fill:url(#New_Gradient_Swatch_8-10);}.cls-11{fill:url(#New_Gradient_Swatch_8-11);}.cls-12{fill:url(#New_Gradient_Swatch_8-12);}.cls-13{fill:url(#New_Gradient_Swatch_8-13);}.cls-14{fill:url(#New_Gradient_Swatch_8-14);}.cls-15{fill:url(#New_Gradient_Swatch_2);}.cls-16{fill:url(#New_Gradient_Swatch_1);}.cls-17{fill:url(#New_Gradient_Swatch_1-2);}.cls-18{fill:url(#New_Gradient_Swatch_1-3);}.cls-19{fill:url(#New_Gradient_Swatch_1-4);}.cls-20{fill:url(#New_Gradient_Swatch_8-15);}</style>
        <linearGradient id="New_Gradient_Swatch_8" x1="415.26" y1="44.14" x2="536.16" y2="44.14" gradientTransform="translate(537.15 99.79) rotate(179.35)" gradientUnits="userSpaceOnUse">
            <stop offset="0" stop-color="#11e900"/>
            <stop offset="0.15" stop-color="#5dff3f"/>
            <stop offset="0.35" stop-color="#00e971"/>
            <stop offset="0.47" stop-color="#3fff71"/>
            <stop offset="0.89" stop-color="#63ff08"/>
        </linearGradient>
        <linearGradient id="New_Gradient_Swatch_8-2" x1="458.31" y1="-4.45" x2="494.97" y2="-4.45" gradientTransform="translate(-232.55 277.2)" xlink:href="#New_Gradient_Swatch_8"/>
        <linearGradient id="New_Gradient_Swatch_8-3" x1="460.69" y1="-26.64" x2="491.67" y2="-26.64" gradientTransform="translate(-231.38 321.55)" xlink:href="#New_Gradient_Swatch_8"/>
        <linearGradient id="New_Gradient_Swatch_8-4" x1="471.51" y1="-11.51" x2="482.14" y2="-11.51" gradientTransform="translate(-232.84 291.31)" xlink:href="#New_Gradient_Swatch_8"/>
        <linearGradient id="New_Gradient_Swatch_8-5" x1="465.07" y1="-38.92" x2="471.51" y2="-38.92" gradientTransform="translate(-215.46 346.03)" xlink:href="#New_Gradient_Swatch_8"/>
        <linearGradient id="New_Gradient_Swatch_8-6" x1="482.22" y1="-39.28" x2="488.82" y2="-39.28" gradientTransform="translate(-249.92 346.96)" xlink:href="#New_Gradient_Swatch_8"/>
        <linearGradient id="New_Gradient_Swatch_8-7" x1="457.42" y1="-65.59" x2="495.74" y2="-65.59" gradientTransform="translate(-231.74 399.47)" xlink:href="#New_Gradient_Swatch_8"/>
        <linearGradient id="New_Gradient_Swatch_8-8" x1="468.48" y1="-90.43" x2="484.52" y2="-90.43" gradientTransform="translate(-231.31 449.15)" xlink:href="#New_Gradient_Swatch_8"/>
        <linearGradient id="New_Gradient_Swatch_8-9" x1="473.55" y1="-95.66" x2="480.52" y2="-95.66" gradientTransform="translate(-232.32 459.61)" xlink:href="#New_Gradient_Swatch_8"/>
        <linearGradient id="New_Gradient_Swatch_8-10" x1="441.01" y1="4.32" x2="471.12" y2="4.32" gradientTransform="translate(-191.51 259.42)" xlink:href="#New_Gradient_Swatch_8"/>
        <linearGradient id="New_Gradient_Swatch_8-11" x1="441.01" y1="-5.89" x2="461.91" y2="-5.89" gradientTransform="translate(-182.18 279.78)" xlink:href="#New_Gradient_Swatch_8"/>
        <linearGradient id="New_Gradient_Swatch_8-12" x1="19.84" y1="61.26" x2="102.95" y2="61.26" gradientTransform="matrix(1, 0, 0, 1, 0, 0)" xlink:href="#New_Gradient_Swatch_8"/>
        <linearGradient id="New_Gradient_Swatch_8-13" x1="445.34" y1="44.06" x2="504.69" y2="44.06" xlink:href="#New_Gradient_Swatch_8"/>
        <linearGradient id="New_Gradient_Swatch_8-14" x1="448.63" y1="43.86" x2="500.98" y2="43.86" xlink:href="#New_Gradient_Swatch_8"/>
        <linearGradient id="New_Gradient_Swatch_2" x1="464.17" y1="43.84" x2="485.28" y2="43.84" gradientTransform="translate(537.15 99.79) rotate(179.35)" gradientUnits="userSpaceOnUse">
            <stop offset="0" stop-color="#9e9e9e"/>
            <stop offset="0.09" stop-color="#a3a3a3"/>
            <stop offset="0.19" stop-color="#b1b1b1"/>
            <stop offset="0.27" stop-color="#c1c1c1"/>
            <stop offset="0.35" stop-color="#cacaca"/>
            <stop offset="0.44" stop-color="#d0d0d0"/>
            <stop offset="0.69" stop-color="#e8e8e8"/>
            <stop offset="0.89" stop-color="#ededed"/>
            <stop offset="1" stop-color="#ddd"/>
        </linearGradient>
        <linearGradient id="New_Gradient_Swatch_1" x1="439.94" y1="75.76" x2="455.56" y2="75.76" gradientTransform="translate(537.15 99.79) rotate(179.35)" gradientUnits="userSpaceOnUse">
            <stop offset="0" stop-color="#d1d1d1"/>
            <stop offset="0.12" stop-color="#d6d6d6"/>
            <stop offset="0.26" stop-color="#e4e4e4"/>
            <stop offset="0.27" stop-color="#e5e5e5"/>
            <stop offset="0.35" stop-color="#ebebeb"/>
            <stop offset="0.44" stop-color="#eee"/>
            <stop offset="0.69" stop-color="#fcfcfc"/>
            <stop offset="0.89" stop-color="#fff"/>
            <stop offset="1" stop-color="#f6f6f6"/>
        </linearGradient>
        <linearGradient id="New_Gradient_Swatch_1-2" x1="497.75" y1="75.76" x2="513.38" y2="75.76" xlink:href="#New_Gradient_Swatch_1"/>
        <linearGradient id="New_Gradient_Swatch_1-3" x1="497.75" y1="12.7" x2="513.38" y2="12.7" xlink:href="#New_Gradient_Swatch_1"/>
        <linearGradient id="New_Gradient_Swatch_1-4" x1="439.94" y1="12.98" x2="455.56" y2="12.98" xlink:href="#New_Gradient_Swatch_1"/>
        <linearGradient id="New_Gradient_Swatch_8-15" x1="449.05" y1="-6.21" x2="453.87" y2="-6.21" xlink:href="#New_Gradient_Swatch_8"/>
    </defs>
    <polygon class="cls-1" points="17.1 19.4 35.18 6.25 56.78 0.51 79 2.96 98.83 13.28 113.6 30.06 121.31 51.04 120.92 73.39 112.48 94.09 97.13 110.35 76.95 119.96 54.65 121.63 33.26 115.14 15.66 101.35 4.23 82.14 0.51 60.1 5 38.2 17.1 19.4"/>
    <rect class="cls-2" x="225.76" y="258.81" width="36.67" height="27.87" transform="translate(307.74 379.59) rotate(179.35)"/>
    <rect class="cls-3" x="229.31" y="286.67" width="30.98" height="16.5" transform="translate(309.41 423.93) rotate(179.35)"/>
    <rect class="cls-4" x="238.67" y="264.68" width="10.63" height="30.25" transform="translate(307.61 393.71) rotate(179.35)"/>
    <rect class="cls-5" x="249.61" y="303.08" width="6.44" height="8.07" transform="translate(325.61 448.23) rotate(179.35)"/>
    <rect class="cls-6" x="232.3" y="303.64" width="6.6" height="8.07" transform="translate(291.16 449.54) rotate(179.35)"/>
    <rect class="cls-7" x="225.68" y="311.97" width="38.32" height="43.82" transform="translate(309.93 501.85) rotate(179.35)"/>
    <rect class="cls-8" x="237.18" y="355.78" width="16.04" height="5.87" transform="translate(310.92 551.52) rotate(179.35)"/>
    <rect class="cls-9" x="241.24" y="361.66" width="6.97" height="4.58" transform="translate(310.03 561.98) rotate(179.35)"/>
    <rect class="cls-10" x="249.51" y="258.88" width="30.11" height="9.71" transform="translate(348.58 361.35) rotate(179.35)"/>
    <rect class="cls-11" x="258.83" y="269.04" width="20.9" height="9.71" transform="translate(358.14 381.61) rotate(179.35)"/>
    <polygon class="cls-12" points="31.26 32.59 43.7 23.54 58.56 19.59 73.85 21.28 87.49 28.38 97.65 39.92 102.95 54.36 102.68 69.74 96.88 83.98 86.32 95.16 72.43 101.77 57.09 102.92 42.38 98.45 30.27 88.97 22.41 75.75 19.84 60.59 22.94 45.52 31.26 32.59"/>
    <polygon class="cls-13" points="40.13 40.66 49 34.2 59.61 31.38 70.52 32.59 80.25 37.65 87.5 45.89 91.29 56.19 91.1 67.16 86.95 77.33 79.42 85.31 69.51 90.02 58.56 90.84 48.06 87.66 39.42 80.89 33.81 71.46 31.98 60.64 34.19 49.89 40.13 40.66"/>
    <polygon class="cls-14" points="43.07 43.44 50.95 37.66 60.32 35.07 69.92 36.03 78.45 40.41 84.76 47.61 88 56.66 87.73 66.34 83.99 75.35 77.27 82.46 68.5 86.71 58.85 87.54 49.63 84.82 42.08 78.93 37.22 70.67 35.71 61.13 37.75 51.63 43.07 43.44"/>
    <polygon class="cls-15" points="54.37 54.11 57.55 51.78 61.33 50.73 65.2 51.12 68.64 52.89 71.19 55.79 72.49 59.44 72.38 63.35 70.87 66.98 68.17 69.84 64.63 71.56 60.74 71.89 57.02 70.8 53.97 68.42 52.01 65.09 51.4 61.25 52.23 57.41 54.37 54.11"/>
    <circle class="cls-16" cx="88.58" cy="29.08" r="7.81"/>
    <circle class="cls-17" cx="30.76" cy="29.74" r="7.81"/>
    <circle class="cls-18" cx="31.47" cy="92.78" r="7.81"/>
    <circle class="cls-19" cx="89.28" cy="91.86" r="7.81"/>
    <circle class="cls-20" cx="85.79" cy="111.09" r="2.41"/>
</svg>